<mxfile host="www.draw.io" modified="2019-10-26T11:12:33.691Z" agent="Mozilla/5.0 (X11; Linux x86_64) AppleWebKit/537.36 (KHTML, like Gecko) Chrome/76.0.3809.87 Safari/537.36" etag="QWnHAZdEcKzKiG8o0T65" version="12.1.7" type="github" pages="1">
  <diagram id="JcPJvcP8vzCySAAviPYO" name="Page-1">
    <mxGraphModel dx="1656" dy="926" grid="1" gridSize="10" guides="1" tooltips="1" connect="1" arrows="1" fold="1" page="1" pageScale="1" pageWidth="827" pageHeight="1169" math="0" shadow="0">
      <root>
        <mxCell id="0"/>
        <mxCell id="1" parent="0"/>
        <mxCell id="76PlY3qgO6dOQQKfIqFN-107" value="auth sessionToken" style="shape=umlLifeline;perimeter=lifelinePerimeter;whiteSpace=wrap;html=1;container=1;collapsible=0;recursiveResize=0;outlineConnect=0;rounded=0;comic=0;align=center;strokeWidth=1;flipH=1;flipV=0;strokeColor=#b46504;labelBorderColor=none;labelBackgroundColor=none;fillColor=#fad7ac;" parent="1" vertex="1">
          <mxGeometry x="1945" y="1008" width="125" height="720" as="geometry"/>
        </mxCell>
        <mxCell id="76PlY3qgO6dOQQKfIqFN-123" value="" style="html=1;points=[];perimeter=orthogonalPerimeter;rounded=0;comic=0;strokeWidth=1;align=center;strokeColor=#000000;labelBorderColor=none;labelBackgroundColor=none;" parent="76PlY3qgO6dOQQKfIqFN-107" vertex="1">
          <mxGeometry x="58" y="100" width="10" height="160" as="geometry"/>
        </mxCell>
        <mxCell id="3qQfNFwAXlZ41oWte92f-22" value="" style="html=1;points=[];perimeter=orthogonalPerimeter;rounded=0;comic=0;strokeWidth=1;align=center;strokeColor=#000000;labelBorderColor=none;labelBackgroundColor=none;" parent="76PlY3qgO6dOQQKfIqFN-107" vertex="1">
          <mxGeometry x="60" y="300" width="10" height="190" as="geometry"/>
        </mxCell>
        <mxCell id="76PlY3qgO6dOQQKfIqFN-116" value="sessionToken-manager" style="shape=umlLifeline;perimeter=lifelinePerimeter;whiteSpace=wrap;html=1;container=1;collapsible=0;recursiveResize=0;outlineConnect=0;rounded=0;comic=0;align=center;strokeWidth=1;flipH=1;flipV=0;strokeColor=#b46504;labelBorderColor=none;labelBackgroundColor=none;fillColor=#fad7ac;" parent="1" vertex="1">
          <mxGeometry x="2338" y="1008" width="125" height="720" as="geometry"/>
        </mxCell>
        <mxCell id="3qQfNFwAXlZ41oWte92f-6" value="" style="html=1;points=[];perimeter=orthogonalPerimeter;rounded=0;comic=0;strokeWidth=1;align=center;strokeColor=#000000;labelBorderColor=none;labelBackgroundColor=none;" parent="76PlY3qgO6dOQQKfIqFN-116" vertex="1">
          <mxGeometry x="57.5" y="217" width="10" height="30" as="geometry"/>
        </mxCell>
        <mxCell id="3qQfNFwAXlZ41oWte92f-37" value="" style="html=1;points=[];perimeter=orthogonalPerimeter;rounded=0;comic=0;strokeWidth=1;align=center;strokeColor=#000000;labelBorderColor=none;labelBackgroundColor=none;" parent="76PlY3qgO6dOQQKfIqFN-116" vertex="1">
          <mxGeometry x="57.5" y="400" width="10" height="30" as="geometry"/>
        </mxCell>
        <mxCell id="76PlY3qgO6dOQQKfIqFN-125" value="" style="html=1;points=[];perimeter=orthogonalPerimeter;rounded=0;comic=0;strokeWidth=1;align=center;strokeColor=#000000;labelBorderColor=none;labelBackgroundColor=none;" parent="76PlY3qgO6dOQQKfIqFN-116" vertex="1">
          <mxGeometry x="58" y="120" width="10" height="40" as="geometry"/>
        </mxCell>
        <mxCell id="3qQfNFwAXlZ41oWte92f-26" value="" style="html=1;points=[];perimeter=orthogonalPerimeter;rounded=0;comic=0;strokeWidth=1;align=center;strokeColor=#000000;labelBorderColor=none;labelBackgroundColor=none;" parent="76PlY3qgO6dOQQKfIqFN-116" vertex="1">
          <mxGeometry x="58" y="300" width="10" height="40" as="geometry"/>
        </mxCell>
        <mxCell id="76PlY3qgO6dOQQKfIqFN-36" value="" style="rounded=1;whiteSpace=wrap;html=1;opacity=80;align=left;fillColor=#d0cee2;strokeColor=#56517e;shadow=0;comic=1;" parent="1" vertex="1">
          <mxGeometry x="168.5" y="130" width="170" height="180" as="geometry"/>
        </mxCell>
        <mxCell id="76PlY3qgO6dOQQKfIqFN-37" value="ldap" style="rounded=1;whiteSpace=wrap;html=1;fillColor=#d0cee2;strokeColor=#56517e;shadow=0;comic=1;" parent="1" vertex="1">
          <mxGeometry x="196.5" y="143" width="110" height="40" as="geometry"/>
        </mxCell>
        <mxCell id="76PlY3qgO6dOQQKfIqFN-38" value="wx" style="rounded=1;whiteSpace=wrap;html=1;fillColor=#d0cee2;strokeColor=#56517e;shadow=0;comic=1;" parent="1" vertex="1">
          <mxGeometry x="196.5" y="203" width="110" height="40" as="geometry"/>
        </mxCell>
        <mxCell id="76PlY3qgO6dOQQKfIqFN-39" value="AD" style="rounded=1;whiteSpace=wrap;html=1;fillColor=#d0cee2;strokeColor=#56517e;shadow=0;comic=1;" parent="1" vertex="1">
          <mxGeometry x="196.5" y="258" width="110" height="40" as="geometry"/>
        </mxCell>
        <mxCell id="76PlY3qgO6dOQQKfIqFN-4" value="&lt;b&gt;raging-hub&lt;br&gt;&lt;/b&gt;" style="rounded=0;whiteSpace=wrap;html=1;comic=1;verticalAlign=top;align=left;fillColor=#f5f5f5;strokeColor=#666666;fontColor=#333333;" parent="1" vertex="1">
          <mxGeometry x="417" y="50" width="532" height="260" as="geometry"/>
        </mxCell>
        <mxCell id="76PlY3qgO6dOQQKfIqFN-3" value="&lt;b&gt;redis&lt;/b&gt;" style="rounded=1;whiteSpace=wrap;html=1;comic=1;verticalAlign=top;align=left;fillColor=#f5f5f5;strokeColor=#666666;gradientColor=#b3b3b3;opacity=40;" parent="1" vertex="1">
          <mxGeometry x="741.5" y="430" width="770" height="120" as="geometry"/>
        </mxCell>
        <mxCell id="76PlY3qgO6dOQQKfIqFN-5" value="&lt;b&gt;middleware&lt;/b&gt;" style="rounded=1;whiteSpace=wrap;html=1;comic=1;verticalAlign=top;align=left;fillColor=#f8cecc;strokeColor=#b85450;opacity=50;" parent="1" vertex="1">
          <mxGeometry x="748.5" y="75" width="190" height="135" as="geometry"/>
        </mxCell>
        <mxCell id="76PlY3qgO6dOQQKfIqFN-29" value="oauth2 server" style="rounded=1;whiteSpace=wrap;html=1;fillColor=#b1ddf0;strokeColor=#10739e;shadow=0;comic=1;fontStyle=1" parent="1" vertex="1">
          <mxGeometry x="437" y="75" width="302" height="40" as="geometry"/>
        </mxCell>
        <mxCell id="76PlY3qgO6dOQQKfIqFN-9" value="&lt;b&gt;auth&lt;br&gt;sessionToken&lt;/b&gt;" style="rounded=1;whiteSpace=wrap;html=1;comic=1;verticalAlign=middle;align=center;fillColor=#f8cecc;strokeColor=#b85450;opacity=50;" parent="1" vertex="1">
          <mxGeometry x="806.5" y="111" width="90" height="50" as="geometry"/>
        </mxCell>
        <mxCell id="76PlY3qgO6dOQQKfIqFN-32" value="interface" style="rounded=1;whiteSpace=wrap;html=1;verticalAlign=top;align=left;fillColor=#fff2cc;strokeColor=#d6b656;shadow=0;comic=1;fontStyle=1" parent="1" vertex="1">
          <mxGeometry x="437" y="218" width="302" height="81" as="geometry"/>
        </mxCell>
        <mxCell id="76PlY3qgO6dOQQKfIqFN-33" value="userInfo" style="rounded=0;whiteSpace=wrap;html=1;fillColor=#fad7ac;strokeColor=#b46504;shadow=0;comic=1;opacity=50;" parent="1" vertex="1">
          <mxGeometry x="539.5" y="245" width="59" height="40" as="geometry"/>
        </mxCell>
        <mxCell id="76PlY3qgO6dOQQKfIqFN-34" value="uid getter" style="rounded=0;whiteSpace=wrap;html=1;fillColor=#fad7ac;strokeColor=#b46504;shadow=0;comic=1;opacity=50;" parent="1" vertex="1">
          <mxGeometry x="611.5" y="245" width="82" height="40" as="geometry"/>
        </mxCell>
        <mxCell id="76PlY3qgO6dOQQKfIqFN-35" value="login" style="rounded=0;whiteSpace=wrap;html=1;fillColor=#fad7ac;strokeColor=#b46504;shadow=0;comic=1;opacity=50;" parent="1" vertex="1">
          <mxGeometry x="471.5" y="245" width="57" height="40" as="geometry"/>
        </mxCell>
        <mxCell id="76PlY3qgO6dOQQKfIqFN-40" value="&lt;span style=&quot;font-size: 20px&quot;&gt;R&lt;/span&gt;" style="ellipse;html=1;aspect=fixed;fillColor=#dae8fc;strokeColor=#6c8ebf;opacity=80;shadow=0;labelBorderColor=none;labelBackgroundColor=none;whiteSpace=wrap;" parent="1" vertex="1">
          <mxGeometry x="358.5" y="227" width="56" height="56" as="geometry"/>
        </mxCell>
        <mxCell id="76PlY3qgO6dOQQKfIqFN-41" style="edgeStyle=orthogonalEdgeStyle;curved=1;rounded=0;comic=1;orthogonalLoop=1;jettySize=auto;html=1;" parent="1" source="76PlY3qgO6dOQQKfIqFN-32" target="76PlY3qgO6dOQQKfIqFN-37" edge="1">
          <mxGeometry relative="1" as="geometry">
            <Array as="points">
              <mxPoint x="378.5" y="258"/>
              <mxPoint x="378.5" y="168"/>
            </Array>
          </mxGeometry>
        </mxCell>
        <mxCell id="76PlY3qgO6dOQQKfIqFN-42" style="edgeStyle=orthogonalEdgeStyle;curved=1;rounded=0;comic=1;orthogonalLoop=1;jettySize=auto;html=1;" parent="1" source="76PlY3qgO6dOQQKfIqFN-32" target="76PlY3qgO6dOQQKfIqFN-38" edge="1">
          <mxGeometry relative="1" as="geometry">
            <Array as="points">
              <mxPoint x="358.5" y="258"/>
              <mxPoint x="358.5" y="223"/>
            </Array>
          </mxGeometry>
        </mxCell>
        <mxCell id="76PlY3qgO6dOQQKfIqFN-43" style="edgeStyle=orthogonalEdgeStyle;curved=1;rounded=0;comic=1;orthogonalLoop=1;jettySize=auto;html=1;" parent="1" source="76PlY3qgO6dOQQKfIqFN-32" target="76PlY3qgO6dOQQKfIqFN-39" edge="1">
          <mxGeometry relative="1" as="geometry"/>
        </mxCell>
        <mxCell id="76PlY3qgO6dOQQKfIqFN-44" value="Application manager" style="rounded=1;whiteSpace=wrap;html=1;verticalAlign=top;align=left;fillColor=#dae8fc;strokeColor=#6c8ebf;shadow=0;fontStyle=1" parent="1" vertex="1">
          <mxGeometry x="438" y="131" width="180" height="80" as="geometry"/>
        </mxCell>
        <mxCell id="76PlY3qgO6dOQQKfIqFN-45" value="scope manager" style="rounded=1;whiteSpace=wrap;html=1;fillColor=#cce5ff;strokeColor=#36393d;shadow=0;comic=1;" parent="1" vertex="1">
          <mxGeometry x="445" y="161" width="80" height="40" as="geometry"/>
        </mxCell>
        <mxCell id="76PlY3qgO6dOQQKfIqFN-72" style="edgeStyle=orthogonalEdgeStyle;curved=1;rounded=0;comic=1;orthogonalLoop=1;jettySize=auto;html=1;exitX=1;exitY=0.75;exitDx=0;exitDy=0;entryX=0.25;entryY=1;entryDx=0;entryDy=0;startArrow=classic;startFill=1;endArrow=none;endFill=0;" parent="1" source="76PlY3qgO6dOQQKfIqFN-47" target="76PlY3qgO6dOQQKfIqFN-9" edge="1">
          <mxGeometry relative="1" as="geometry"/>
        </mxCell>
        <mxCell id="76PlY3qgO6dOQQKfIqFN-73" style="edgeStyle=orthogonalEdgeStyle;curved=1;rounded=0;comic=1;orthogonalLoop=1;jettySize=auto;html=1;exitX=0;exitY=0.25;exitDx=0;exitDy=0;entryX=0.5;entryY=1;entryDx=0;entryDy=0;startArrow=classic;startFill=1;endArrow=none;endFill=0;" parent="1" source="76PlY3qgO6dOQQKfIqFN-47" target="76PlY3qgO6dOQQKfIqFN-29" edge="1">
          <mxGeometry relative="1" as="geometry"/>
        </mxCell>
        <mxCell id="76PlY3qgO6dOQQKfIqFN-74" style="edgeStyle=orthogonalEdgeStyle;curved=1;rounded=0;comic=1;orthogonalLoop=1;jettySize=auto;html=1;exitX=0.25;exitY=1;exitDx=0;exitDy=0;entryX=0.5;entryY=0;entryDx=0;entryDy=0;startArrow=none;startFill=0;endArrow=classic;endFill=1;" parent="1" source="76PlY3qgO6dOQQKfIqFN-47" target="76PlY3qgO6dOQQKfIqFN-6" edge="1">
          <mxGeometry relative="1" as="geometry"/>
        </mxCell>
        <mxCell id="76PlY3qgO6dOQQKfIqFN-75" style="edgeStyle=orthogonalEdgeStyle;curved=1;rounded=0;comic=1;orthogonalLoop=1;jettySize=auto;html=1;exitX=0.5;exitY=1;exitDx=0;exitDy=0;startArrow=none;startFill=0;endArrow=classic;endFill=1;" parent="1" source="76PlY3qgO6dOQQKfIqFN-47" target="76PlY3qgO6dOQQKfIqFN-7" edge="1">
          <mxGeometry relative="1" as="geometry"/>
        </mxCell>
        <mxCell id="76PlY3qgO6dOQQKfIqFN-47" value="token manager" style="rounded=1;whiteSpace=wrap;html=1;fillColor=#b0e3e6;strokeColor=#0e8088;shadow=0;comic=1;align=left;verticalAlign=top;fontStyle=1" parent="1" vertex="1">
          <mxGeometry x="627" y="131" width="112" height="79" as="geometry"/>
        </mxCell>
        <mxCell id="76PlY3qgO6dOQQKfIqFN-49" value="&lt;b&gt;static&lt;/b&gt;" style="rounded=1;whiteSpace=wrap;html=1;comic=1;verticalAlign=top;align=left;fillColor=#76608a;strokeColor=#432D57;fontColor=#ffffff;opacity=40;" parent="1" vertex="1">
          <mxGeometry x="748.5" y="220" width="100" height="80" as="geometry"/>
        </mxCell>
        <mxCell id="76PlY3qgO6dOQQKfIqFN-54" value="&lt;b&gt;ui-pages&lt;/b&gt;" style="rounded=1;whiteSpace=wrap;html=1;comic=1;verticalAlign=middle;align=center;fillColor=#76608a;strokeColor=#432D57;fontColor=#ffffff;opacity=30;" parent="1" vertex="1">
          <mxGeometry x="754.5" y="243" width="90" height="50" as="geometry"/>
        </mxCell>
        <mxCell id="76PlY3qgO6dOQQKfIqFN-55" value="uaa-fronted-proxy" style="rounded=0;whiteSpace=wrap;html=1;verticalAlign=top;comic=1;fillColor=#eeeeee;strokeColor=#36393d;align=left;fontSize=14;fontStyle=1" parent="1" vertex="1">
          <mxGeometry x="1060" y="55" width="480" height="250" as="geometry"/>
        </mxCell>
        <mxCell id="76PlY3qgO6dOQQKfIqFN-56" value="oauth2 client" style="rounded=1;whiteSpace=wrap;html=1;comic=1;fillColor=#fad7ac;strokeColor=#b46504;opacity=70;" parent="1" vertex="1">
          <mxGeometry x="1230" y="89" width="106" height="91" as="geometry"/>
        </mxCell>
        <mxCell id="DjlRrPvjS2F6TvQDkWPC-1" style="edgeStyle=orthogonalEdgeStyle;rounded=0;orthogonalLoop=1;jettySize=auto;html=1;exitX=1;exitY=0.25;exitDx=0;exitDy=0;entryX=0;entryY=0.25;entryDx=0;entryDy=0;curved=1;" edge="1" parent="1" source="76PlY3qgO6dOQQKfIqFN-58" target="76PlY3qgO6dOQQKfIqFN-61">
          <mxGeometry relative="1" as="geometry"/>
        </mxCell>
        <mxCell id="76PlY3qgO6dOQQKfIqFN-58" value="proxy" style="rounded=1;whiteSpace=wrap;html=1;comic=1;fillColor=#e1d5e7;strokeColor=#9673a6;align=left;verticalAlign=top;fontStyle=1" parent="1" vertex="1">
          <mxGeometry x="1439.5" y="89" width="88" height="205" as="geometry"/>
        </mxCell>
        <mxCell id="76PlY3qgO6dOQQKfIqFN-102" value="存取用户信息" style="edgeStyle=orthogonalEdgeStyle;curved=1;rounded=0;comic=1;orthogonalLoop=1;jettySize=auto;html=1;exitX=0.25;exitY=1;exitDx=0;exitDy=0;startArrow=none;startFill=0;endArrow=classic;endFill=1;" parent="1" source="76PlY3qgO6dOQQKfIqFN-59" target="76PlY3qgO6dOQQKfIqFN-98" edge="1">
          <mxGeometry x="-0.2857" y="-15" relative="1" as="geometry">
            <mxPoint as="offset"/>
          </mxGeometry>
        </mxCell>
        <mxCell id="76PlY3qgO6dOQQKfIqFN-103" value="存取" style="edgeStyle=orthogonalEdgeStyle;curved=1;rounded=0;comic=1;orthogonalLoop=1;jettySize=auto;html=1;exitX=0.75;exitY=1;exitDx=0;exitDy=0;entryX=0.75;entryY=0;entryDx=0;entryDy=0;startArrow=none;startFill=0;endArrow=classic;endFill=1;" parent="1" source="76PlY3qgO6dOQQKfIqFN-59" target="76PlY3qgO6dOQQKfIqFN-97" edge="1">
          <mxGeometry relative="1" as="geometry"/>
        </mxCell>
        <mxCell id="76PlY3qgO6dOQQKfIqFN-59" value="user manager" style="rounded=1;whiteSpace=wrap;html=1;comic=1;fillColor=#d5e8d4;strokeColor=#82b366;align=center;verticalAlign=middle;fontStyle=1" parent="1" vertex="1">
          <mxGeometry x="1344" y="89" width="88" height="205" as="geometry"/>
        </mxCell>
        <mxCell id="76PlY3qgO6dOQQKfIqFN-61" value="third-apps" style="rounded=1;whiteSpace=wrap;html=1;opacity=80;align=center;fillColor=#d0cee2;strokeColor=#56517e;shadow=0;comic=1;fontColor=#000000;verticalAlign=top;fontSize=14;fontStyle=1" parent="1" vertex="1">
          <mxGeometry x="1635" y="99" width="160" height="184" as="geometry"/>
        </mxCell>
        <mxCell id="76PlY3qgO6dOQQKfIqFN-62" value="gitlab" style="rounded=1;whiteSpace=wrap;html=1;fillColor=#d0cee2;strokeColor=#56517e;shadow=0;comic=1;fontStyle=0" parent="1" vertex="1">
          <mxGeometry x="1703" y="144" width="70" height="30" as="geometry"/>
        </mxCell>
        <mxCell id="76PlY3qgO6dOQQKfIqFN-63" value="rancher" style="rounded=1;whiteSpace=wrap;html=1;fillColor=#d0cee2;strokeColor=#56517e;shadow=0;comic=1;fontStyle=0" parent="1" vertex="1">
          <mxGeometry x="1703" y="190" width="70" height="30" as="geometry"/>
        </mxCell>
        <mxCell id="76PlY3qgO6dOQQKfIqFN-64" value="..." style="rounded=1;whiteSpace=wrap;html=1;fillColor=#d0cee2;strokeColor=#56517e;shadow=0;comic=1;fontStyle=0" parent="1" vertex="1">
          <mxGeometry x="1705" y="236" width="70" height="30" as="geometry"/>
        </mxCell>
        <mxCell id="76PlY3qgO6dOQQKfIqFN-78" value="db1" style="rounded=1;whiteSpace=wrap;html=1;comic=1;verticalAlign=top;align=left;fillColor=#dae8fc;strokeColor=#6c8ebf;opacity=40;" parent="1" vertex="1">
          <mxGeometry x="754.5" y="460" width="255" height="80" as="geometry"/>
        </mxCell>
        <mxCell id="76PlY3qgO6dOQQKfIqFN-79" value="db2" style="rounded=1;whiteSpace=wrap;html=1;comic=1;verticalAlign=top;align=left;fillColor=#ffe6cc;strokeColor=#d79b00;opacity=40;" parent="1" vertex="1">
          <mxGeometry x="1055.5" y="440" width="406" height="100" as="geometry"/>
        </mxCell>
        <mxCell id="76PlY3qgO6dOQQKfIqFN-77" value="&lt;b&gt;accessToken&lt;/b&gt;" style="rounded=1;whiteSpace=wrap;html=1;comic=1;verticalAlign=middle;align=center;fillColor=#fad7ac;strokeColor=#b46504;opacity=50;" parent="1" vertex="1">
          <mxGeometry x="1158.5" y="500" width="105" height="40" as="geometry"/>
        </mxCell>
        <mxCell id="76PlY3qgO6dOQQKfIqFN-6" value="&lt;b&gt;sessionToken&lt;/b&gt;" style="rounded=1;whiteSpace=wrap;html=1;comic=1;verticalAlign=middle;align=center;fillColor=#dae8fc;strokeColor=#6c8ebf;" parent="1" vertex="1">
          <mxGeometry x="761.5" y="490" width="110" height="40" as="geometry"/>
        </mxCell>
        <mxCell id="76PlY3qgO6dOQQKfIqFN-7" value="&lt;b&gt;accessToken&lt;/b&gt;" style="rounded=1;whiteSpace=wrap;html=1;comic=1;verticalAlign=middle;align=center;fillColor=#dae8fc;strokeColor=#6c8ebf;" parent="1" vertex="1">
          <mxGeometry x="891.5" y="490" width="110" height="40" as="geometry"/>
        </mxCell>
        <mxCell id="76PlY3qgO6dOQQKfIqFN-80" value="&lt;b&gt;sessionToken&lt;/b&gt;" style="rounded=1;whiteSpace=wrap;html=1;comic=1;verticalAlign=middle;align=center;fillColor=#bac8d3;strokeColor=#23445d;opacity=70;" parent="1" vertex="1">
          <mxGeometry x="1100" y="453" width="110" height="40" as="geometry"/>
        </mxCell>
        <mxCell id="76PlY3qgO6dOQQKfIqFN-84" value="ui-proxy" style="rounded=1;whiteSpace=wrap;html=1;comic=1;fillColor=#e1d5e7;strokeColor=#9673a6;align=center;verticalAlign=middle;fontStyle=1" parent="1" vertex="1">
          <mxGeometry x="1447" y="122" width="73" height="40" as="geometry"/>
        </mxCell>
        <mxCell id="76PlY3qgO6dOQQKfIqFN-85" value="api-proxy" style="rounded=1;whiteSpace=wrap;html=1;comic=1;fillColor=#e1d5e7;strokeColor=#9673a6;align=center;verticalAlign=middle;fontStyle=1" parent="1" vertex="1">
          <mxGeometry x="1448" y="206" width="73" height="40" as="geometry"/>
        </mxCell>
        <mxCell id="76PlY3qgO6dOQQKfIqFN-60" value="api access" style="edgeStyle=orthogonalEdgeStyle;curved=1;rounded=0;orthogonalLoop=1;jettySize=auto;html=1;entryX=1.023;entryY=0.473;entryDx=0;entryDy=0;shadow=0;startArrow=classic;startFill=1;endArrow=none;endFill=0;fontSize=14;fontColor=#000000;entryPerimeter=0;" parent="1" source="76PlY3qgO6dOQQKfIqFN-61" target="76PlY3qgO6dOQQKfIqFN-59" edge="1">
          <mxGeometry x="-0.466" y="9" relative="1" as="geometry">
            <mxPoint as="offset"/>
          </mxGeometry>
        </mxCell>
        <mxCell id="76PlY3qgO6dOQQKfIqFN-91" style="edgeStyle=orthogonalEdgeStyle;curved=1;rounded=0;comic=1;orthogonalLoop=1;jettySize=auto;html=1;startArrow=none;startFill=0;endArrow=classic;endFill=1;entryX=0.75;entryY=0;entryDx=0;entryDy=0;" parent="1" source="3qQfNFwAXlZ41oWte92f-111" target="76PlY3qgO6dOQQKfIqFN-77" edge="1">
          <mxGeometry relative="1" as="geometry"/>
        </mxCell>
        <mxCell id="76PlY3qgO6dOQQKfIqFN-92" style="edgeStyle=orthogonalEdgeStyle;curved=1;rounded=0;comic=1;orthogonalLoop=1;jettySize=auto;html=1;startArrow=none;startFill=0;endArrow=classic;endFill=1;entryX=0.25;entryY=0;entryDx=0;entryDy=0;" parent="1" source="3qQfNFwAXlZ41oWte92f-110" target="76PlY3qgO6dOQQKfIqFN-80" edge="1">
          <mxGeometry relative="1" as="geometry"/>
        </mxCell>
        <mxCell id="76PlY3qgO6dOQQKfIqFN-93" value="session注入" style="edgeStyle=orthogonalEdgeStyle;curved=1;rounded=0;comic=1;orthogonalLoop=1;jettySize=auto;html=1;exitX=1;exitY=0.25;exitDx=0;exitDy=0;entryX=0;entryY=0.75;entryDx=0;entryDy=0;startArrow=none;startFill=0;endArrow=classic;endFill=1;" parent="1" source="76PlY3qgO6dOQQKfIqFN-86" target="76PlY3qgO6dOQQKfIqFN-58" edge="1">
          <mxGeometry relative="1" as="geometry"/>
        </mxCell>
        <mxCell id="76PlY3qgO6dOQQKfIqFN-86" value="token manager&lt;span style=&quot;font-weight: normal&quot;&gt;解析和校验&lt;/span&gt;" style="rounded=1;whiteSpace=wrap;html=1;comic=1;fillColor=#b1ddf0;align=center;verticalAlign=top;fontStyle=1;strokeColor=#10739e;opacity=50;" parent="1" vertex="1">
          <mxGeometry x="1075" y="200" width="255" height="90" as="geometry"/>
        </mxCell>
        <mxCell id="76PlY3qgO6dOQQKfIqFN-89" value="&lt;b&gt;middleware&lt;/b&gt;" style="rounded=1;whiteSpace=wrap;html=1;comic=1;verticalAlign=top;align=left;fillColor=#f8cecc;strokeColor=#b85450;opacity=50;" parent="1" vertex="1">
          <mxGeometry x="1070" y="89" width="151" height="94" as="geometry"/>
        </mxCell>
        <mxCell id="76PlY3qgO6dOQQKfIqFN-90" value="&lt;b&gt;auth sessionToken&lt;/b&gt;" style="rounded=1;whiteSpace=wrap;html=1;comic=1;verticalAlign=middle;align=center;fillColor=#f8cecc;strokeColor=#b85450;opacity=50;" parent="1" vertex="1">
          <mxGeometry x="1081" y="146" width="130" height="31" as="geometry"/>
        </mxCell>
        <mxCell id="76PlY3qgO6dOQQKfIqFN-104" value="通过sessionToken&lt;br&gt;获取数据" style="edgeStyle=orthogonalEdgeStyle;curved=1;rounded=0;comic=1;orthogonalLoop=1;jettySize=auto;html=1;exitX=1;exitY=0.5;exitDx=0;exitDy=0;entryX=0;entryY=0.25;entryDx=0;entryDy=0;startArrow=none;startFill=0;endArrow=classic;endFill=1;strokeWidth=2;fillColor=#008a00;strokeColor=#005700;" parent="1" source="76PlY3qgO6dOQQKfIqFN-96" target="76PlY3qgO6dOQQKfIqFN-89" edge="1">
          <mxGeometry relative="1" as="geometry"/>
        </mxCell>
        <mxCell id="76PlY3qgO6dOQQKfIqFN-96" value="proxy" style="rounded=1;whiteSpace=wrap;html=1;comic=1;fillColor=#b0e3e6;strokeColor=#0e8088;align=center;verticalAlign=middle;fontStyle=1;" parent="1" vertex="1">
          <mxGeometry x="854.5" y="221" width="84" height="79" as="geometry"/>
        </mxCell>
        <mxCell id="76PlY3qgO6dOQQKfIqFN-97" value="&lt;b&gt;thirdAppToken&lt;/b&gt;" style="rounded=1;whiteSpace=wrap;html=1;comic=1;verticalAlign=middle;align=center;fillColor=#d5e8d4;strokeColor=#82b366;" parent="1" vertex="1">
          <mxGeometry x="1316" y="500" width="110" height="40" as="geometry"/>
        </mxCell>
        <mxCell id="76PlY3qgO6dOQQKfIqFN-98" value="&lt;b&gt;userStore&lt;/b&gt;" style="rounded=1;whiteSpace=wrap;html=1;comic=1;verticalAlign=middle;align=center;fillColor=#d5e8d4;strokeColor=#82b366;" parent="1" vertex="1">
          <mxGeometry x="1277.5" y="453" width="105" height="40" as="geometry"/>
        </mxCell>
        <mxCell id="76PlY3qgO6dOQQKfIqFN-106" style="rounded=0;comic=1;orthogonalLoop=1;jettySize=auto;html=1;exitX=0;exitY=0;exitDx=44;exitDy=0;exitPerimeter=0;startArrow=diamondThin;startFill=1;endArrow=diamondThin;endFill=1;entryX=0;entryY=0.75;entryDx=0;entryDy=0;fillColor=#008a00;strokeColor=#005700;strokeWidth=2;" parent="1" source="76PlY3qgO6dOQQKfIqFN-105" target="76PlY3qgO6dOQQKfIqFN-86" edge="1">
          <mxGeometry relative="1" as="geometry">
            <mxPoint x="1011.5" y="290" as="targetPoint"/>
          </mxGeometry>
        </mxCell>
        <mxCell id="76PlY3qgO6dOQQKfIqFN-105" value="1. 本地redis校验sessionToken&lt;br&gt;2. 从raging-hub校验sessionToke并获取对应员工号（用户id）" style="shape=note;whiteSpace=wrap;html=1;backgroundOutline=1;darkOpacity=0.05;rounded=0;comic=1;fillColor=#dae8fc;opacity=40;align=left;strokeColor=#6c8ebf;" parent="1" vertex="1">
          <mxGeometry x="916" y="333" width="201" height="60" as="geometry"/>
        </mxCell>
        <mxCell id="76PlY3qgO6dOQQKfIqFN-110" value="uaa-proxy&lt;br&gt;get accessToken" style="ellipse;whiteSpace=wrap;html=1;rounded=0;comic=1;opacity=40;align=center;fillColor=#e1d5e7;strokeColor=#9673a6;" parent="1" vertex="1">
          <mxGeometry x="1730" y="1563" width="110" height="40" as="geometry"/>
        </mxCell>
        <mxCell id="76PlY3qgO6dOQQKfIqFN-111" value="uaa-proxy&lt;br&gt;get code" style="ellipse;whiteSpace=wrap;html=1;rounded=0;comic=1;opacity=40;align=center;fillColor=#ffe6cc;strokeColor=#d79b00;" parent="1" vertex="1">
          <mxGeometry x="1730" y="1288" width="110" height="40" as="geometry"/>
        </mxCell>
        <mxCell id="76PlY3qgO6dOQQKfIqFN-112" value="raging-ui访问流程" style="ellipse;whiteSpace=wrap;html=1;rounded=0;comic=1;opacity=40;align=center;fillColor=#b0e3e6;strokeColor=#0e8088;" parent="1" vertex="1">
          <mxGeometry x="1728" y="1088" width="110" height="40" as="geometry"/>
        </mxCell>
        <mxCell id="76PlY3qgO6dOQQKfIqFN-115" value="login page" style="shape=umlLifeline;perimeter=lifelinePerimeter;whiteSpace=wrap;html=1;container=1;collapsible=0;recursiveResize=0;outlineConnect=0;rounded=0;comic=0;align=center;strokeWidth=1;flipH=1;flipV=0;strokeColor=#b46504;labelBorderColor=none;labelBackgroundColor=none;fillColor=#fad7ac;" parent="1" vertex="1">
          <mxGeometry x="2141" y="1008" width="126" height="720" as="geometry"/>
        </mxCell>
        <mxCell id="3qQfNFwAXlZ41oWte92f-2" value="" style="html=1;points=[];perimeter=orthogonalPerimeter;rounded=0;comic=0;strokeWidth=1;align=center;strokeColor=#000000;labelBorderColor=none;labelBackgroundColor=none;" parent="76PlY3qgO6dOQQKfIqFN-115" vertex="1">
          <mxGeometry x="58" y="180" width="10" height="80" as="geometry"/>
        </mxCell>
        <mxCell id="3qQfNFwAXlZ41oWte92f-36" value="" style="html=1;points=[];perimeter=orthogonalPerimeter;rounded=0;comic=0;strokeWidth=1;align=center;strokeColor=#000000;labelBorderColor=none;labelBackgroundColor=none;" parent="76PlY3qgO6dOQQKfIqFN-115" vertex="1">
          <mxGeometry x="60" y="360" width="10" height="120" as="geometry"/>
        </mxCell>
        <mxCell id="76PlY3qgO6dOQQKfIqFN-117" value="ldap/wx/ad" style="shape=umlLifeline;perimeter=lifelinePerimeter;whiteSpace=wrap;html=1;container=1;collapsible=0;recursiveResize=0;outlineConnect=0;rounded=0;comic=0;align=center;strokeWidth=1;flipH=1;flipV=0;strokeColor=#b46504;labelBorderColor=none;labelBackgroundColor=none;fillColor=#fad7ac;" parent="1" vertex="1">
          <mxGeometry x="2535" y="1008" width="125" height="720" as="geometry"/>
        </mxCell>
        <mxCell id="3qQfNFwAXlZ41oWte92f-13" value="" style="html=1;points=[];perimeter=orthogonalPerimeter;rounded=0;comic=0;strokeWidth=1;align=center;strokeColor=#000000;labelBorderColor=none;labelBackgroundColor=none;" parent="76PlY3qgO6dOQQKfIqFN-117" vertex="1">
          <mxGeometry x="57" y="180" width="10" height="30" as="geometry"/>
        </mxCell>
        <mxCell id="3qQfNFwAXlZ41oWte92f-38" value="" style="html=1;points=[];perimeter=orthogonalPerimeter;rounded=0;comic=0;strokeWidth=1;align=center;strokeColor=#000000;labelBorderColor=none;labelBackgroundColor=none;" parent="76PlY3qgO6dOQQKfIqFN-117" vertex="1">
          <mxGeometry x="57" y="360" width="10" height="30" as="geometry"/>
        </mxCell>
        <mxCell id="76PlY3qgO6dOQQKfIqFN-118" value="/oauth/authorize" style="shape=umlLifeline;perimeter=lifelinePerimeter;whiteSpace=wrap;html=1;container=1;collapsible=0;recursiveResize=0;outlineConnect=0;rounded=0;comic=0;align=center;strokeWidth=1;flipH=1;flipV=0;strokeColor=#10739e;labelBorderColor=none;labelBackgroundColor=none;fillColor=#b1ddf0;" parent="1" vertex="1">
          <mxGeometry x="2701" y="1008" width="125" height="720" as="geometry"/>
        </mxCell>
        <mxCell id="3qQfNFwAXlZ41oWte92f-45" value="" style="html=1;points=[];perimeter=orthogonalPerimeter;rounded=0;comic=0;strokeWidth=1;align=center;strokeColor=#000000;labelBorderColor=none;labelBackgroundColor=none;" parent="76PlY3qgO6dOQQKfIqFN-118" vertex="1">
          <mxGeometry x="57" y="430" width="10" height="40" as="geometry"/>
        </mxCell>
        <mxCell id="76PlY3qgO6dOQQKfIqFN-120" value="/oauth/token" style="shape=umlLifeline;perimeter=lifelinePerimeter;whiteSpace=wrap;html=1;container=1;collapsible=0;recursiveResize=0;outlineConnect=0;rounded=0;comic=0;align=center;strokeWidth=1;flipH=1;flipV=0;strokeColor=#10739e;labelBorderColor=none;labelBackgroundColor=none;fillColor=#b1ddf0;" parent="1" vertex="1">
          <mxGeometry x="2868" y="1008" width="125" height="720" as="geometry"/>
        </mxCell>
        <mxCell id="3qQfNFwAXlZ41oWte92f-66" value="" style="html=1;points=[];perimeter=orthogonalPerimeter;rounded=0;comic=0;strokeWidth=1;align=center;strokeColor=#000000;labelBorderColor=none;labelBackgroundColor=none;" parent="76PlY3qgO6dOQQKfIqFN-120" vertex="1">
          <mxGeometry x="60" y="575" width="10" height="116" as="geometry"/>
        </mxCell>
        <mxCell id="76PlY3qgO6dOQQKfIqFN-121" value="validator" style="shape=umlLifeline;perimeter=lifelinePerimeter;whiteSpace=wrap;html=1;container=1;collapsible=0;recursiveResize=0;outlineConnect=0;rounded=0;comic=0;align=center;strokeWidth=1;flipH=1;flipV=0;strokeColor=#10739e;labelBorderColor=none;labelBackgroundColor=none;fillColor=#b1ddf0;" parent="1" vertex="1">
          <mxGeometry x="3034" y="1008" width="125" height="720" as="geometry"/>
        </mxCell>
        <mxCell id="3qQfNFwAXlZ41oWte92f-87" value="" style="html=1;points=[];perimeter=orthogonalPerimeter;rounded=0;comic=0;strokeWidth=1;align=center;strokeColor=#000000;labelBorderColor=none;labelBackgroundColor=none;" parent="76PlY3qgO6dOQQKfIqFN-121" vertex="1">
          <mxGeometry x="59.5" y="595" width="10" height="30" as="geometry"/>
        </mxCell>
        <mxCell id="3qQfNFwAXlZ41oWte92f-48" value="" style="html=1;points=[];perimeter=orthogonalPerimeter;rounded=0;comic=0;strokeWidth=1;align=center;strokeColor=#000000;labelBorderColor=none;labelBackgroundColor=none;" parent="76PlY3qgO6dOQQKfIqFN-121" vertex="1">
          <mxGeometry x="57.5" y="436" width="10" height="30" as="geometry"/>
        </mxCell>
        <mxCell id="76PlY3qgO6dOQQKfIqFN-122" value="accessToken-manager" style="shape=umlLifeline;perimeter=lifelinePerimeter;whiteSpace=wrap;html=1;container=1;collapsible=0;recursiveResize=0;outlineConnect=0;rounded=0;comic=0;align=center;strokeWidth=1;flipH=1;flipV=0;strokeColor=#10739e;labelBorderColor=none;labelBackgroundColor=none;fillColor=#b1ddf0;" parent="1" vertex="1">
          <mxGeometry x="3200" y="1008" width="125" height="720" as="geometry"/>
        </mxCell>
        <mxCell id="3qQfNFwAXlZ41oWte92f-90" value="" style="html=1;points=[];perimeter=orthogonalPerimeter;rounded=0;comic=0;strokeWidth=1;align=center;strokeColor=#000000;labelBorderColor=none;labelBackgroundColor=none;" parent="76PlY3qgO6dOQQKfIqFN-122" vertex="1">
          <mxGeometry x="57.5" y="650" width="10" height="30" as="geometry"/>
        </mxCell>
        <mxCell id="76PlY3qgO6dOQQKfIqFN-124" value="发送请求" style="endArrow=classic;html=1;strokeWidth=1;comic=0;strokeColor=#000000;labelBorderColor=none;labelBackgroundColor=#ffffff;spacingLeft=2;spacingRight=2;" parent="1" source="76PlY3qgO6dOQQKfIqFN-112" target="76PlY3qgO6dOQQKfIqFN-123" edge="1">
          <mxGeometry width="50" height="50" relative="1" as="geometry">
            <mxPoint x="1870" y="1108" as="sourcePoint"/>
            <mxPoint x="2000" y="1108" as="targetPoint"/>
          </mxGeometry>
        </mxCell>
        <mxCell id="3qQfNFwAXlZ41oWte92f-1" value="验证sessionToken" style="endArrow=classic;html=1;strokeWidth=1;comic=0;strokeColor=#000000;labelBorderColor=none;labelBackgroundColor=#ffffff;spacingLeft=2;spacingRight=2;" parent="1" target="76PlY3qgO6dOQQKfIqFN-125" edge="1">
          <mxGeometry width="50" height="50" relative="1" as="geometry">
            <mxPoint x="2013" y="1129" as="sourcePoint"/>
            <mxPoint x="2186.5" y="1129" as="targetPoint"/>
          </mxGeometry>
        </mxCell>
        <mxCell id="3qQfNFwAXlZ41oWte92f-5" value="携带临时&lt;br&gt;sessionToken（no info）&lt;br&gt;重定向到登录" style="endArrow=classic;html=1;strokeWidth=1;comic=0;strokeColor=#000000;labelBorderColor=none;labelBackgroundColor=#ffffff;spacingLeft=2;spacingRight=2;exitX=1.117;exitY=0.468;exitDx=0;exitDy=0;exitPerimeter=0;" parent="1" target="3qQfNFwAXlZ41oWte92f-2" edge="1">
          <mxGeometry width="50" height="50" relative="1" as="geometry">
            <mxPoint x="2014.17" y="1192.8799999999999" as="sourcePoint"/>
            <mxPoint x="2196.5" y="1149" as="targetPoint"/>
          </mxGeometry>
        </mxCell>
        <mxCell id="3qQfNFwAXlZ41oWte92f-7" value="登录" style="endArrow=classic;html=1;strokeWidth=1;comic=0;strokeColor=#000000;labelBorderColor=none;labelBackgroundColor=#ffffff;spacingLeft=2;spacingRight=2;entryX=0.145;entryY=0.151;entryDx=0;entryDy=0;entryPerimeter=0;" parent="1" source="3qQfNFwAXlZ41oWte92f-2" target="3qQfNFwAXlZ41oWte92f-13" edge="1">
          <mxGeometry width="50" height="50" relative="1" as="geometry">
            <mxPoint x="2381.5" y="1201" as="sourcePoint"/>
            <mxPoint x="2557" y="1201" as="targetPoint"/>
            <Array as="points"/>
          </mxGeometry>
        </mxCell>
        <mxCell id="3qQfNFwAXlZ41oWte92f-8" value="返回成功" style="endArrow=classic;html=1;strokeWidth=1;comic=0;strokeColor=#000000;labelBorderColor=none;labelBackgroundColor=#ffffff;spacingLeft=2;spacingRight=2;exitX=0.093;exitY=0.965;exitDx=0;exitDy=0;exitPerimeter=0;" parent="1" source="3qQfNFwAXlZ41oWte92f-13" target="3qQfNFwAXlZ41oWte92f-2" edge="1">
          <mxGeometry width="50" height="50" relative="1" as="geometry">
            <mxPoint x="2557" y="1226" as="sourcePoint"/>
            <mxPoint x="2381.5" y="1226" as="targetPoint"/>
          </mxGeometry>
        </mxCell>
        <mxCell id="3qQfNFwAXlZ41oWte92f-9" value="返回sessionToken" style="endArrow=classic;html=1;strokeWidth=1;comic=0;strokeColor=#000000;labelBorderColor=none;labelBackgroundColor=#ffffff;spacingLeft=2;spacingRight=2;" parent="1" source="3qQfNFwAXlZ41oWte92f-2" edge="1">
          <mxGeometry width="50" height="50" relative="1" as="geometry">
            <mxPoint x="2320" y="1298" as="sourcePoint"/>
            <mxPoint x="2014" y="1268" as="targetPoint"/>
          </mxGeometry>
        </mxCell>
        <mxCell id="3qQfNFwAXlZ41oWte92f-10" value="返回临时sessionToken" style="endArrow=classic;html=1;strokeWidth=1;comic=0;strokeColor=#000000;labelBorderColor=none;labelBackgroundColor=#ffffff;spacingLeft=2;spacingRight=2;" parent="1" source="76PlY3qgO6dOQQKfIqFN-125" target="76PlY3qgO6dOQQKfIqFN-123" edge="1">
          <mxGeometry width="50" height="50" relative="1" as="geometry">
            <mxPoint x="2266.5" y="1158" as="sourcePoint"/>
            <mxPoint x="2091" y="1158" as="targetPoint"/>
            <Array as="points">
              <mxPoint x="2160" y="1168"/>
            </Array>
          </mxGeometry>
        </mxCell>
        <mxCell id="3qQfNFwAXlZ41oWte92f-15" value="请求sessionToken" style="endArrow=classic;html=1;strokeWidth=1;comic=0;strokeColor=#000000;labelBorderColor=none;labelBackgroundColor=#ffffff;spacingLeft=2;spacingRight=2;entryX=0.05;entryY=0.072;entryDx=0;entryDy=0;entryPerimeter=0;" parent="1" source="3qQfNFwAXlZ41oWte92f-2" target="3qQfNFwAXlZ41oWte92f-6" edge="1">
          <mxGeometry width="50" height="50" relative="1" as="geometry">
            <mxPoint x="2392" y="1199.5300000000002" as="sourcePoint"/>
            <mxPoint x="2751.95" y="1199.5300000000002" as="targetPoint"/>
            <Array as="points"/>
          </mxGeometry>
        </mxCell>
        <mxCell id="3qQfNFwAXlZ41oWte92f-16" value="生成sessionToken" style="endArrow=classic;html=1;strokeWidth=1;comic=0;strokeColor=#000000;labelBorderColor=none;labelBackgroundColor=#ffffff;spacingLeft=2;spacingRight=2;exitX=0.117;exitY=0.817;exitDx=0;exitDy=0;exitPerimeter=0;" parent="1" source="3qQfNFwAXlZ41oWte92f-6" target="3qQfNFwAXlZ41oWte92f-2" edge="1">
          <mxGeometry width="50" height="50" relative="1" as="geometry">
            <mxPoint x="2392" y="1231.5" as="sourcePoint"/>
            <mxPoint x="2566.5" y="1231.5" as="targetPoint"/>
          </mxGeometry>
        </mxCell>
        <mxCell id="3qQfNFwAXlZ41oWte92f-24" value="clientId+scope+..." style="endArrow=classic;html=1;strokeWidth=1;comic=0;strokeColor=#000000;labelBorderColor=none;labelBackgroundColor=#ffffff;spacingLeft=2;spacingRight=2;exitX=1;exitY=0.5;exitDx=0;exitDy=0;" parent="1" source="76PlY3qgO6dOQQKfIqFN-111" target="3qQfNFwAXlZ41oWte92f-22" edge="1">
          <mxGeometry width="50" height="50" relative="1" as="geometry">
            <mxPoint x="1817" y="1358" as="sourcePoint"/>
            <mxPoint x="1982" y="1358" as="targetPoint"/>
          </mxGeometry>
        </mxCell>
        <mxCell id="3qQfNFwAXlZ41oWte92f-28" value="返回临时sessionToken" style="endArrow=classic;html=1;strokeWidth=1;comic=0;strokeColor=#000000;labelBorderColor=none;labelBackgroundColor=#ffffff;spacingLeft=2;spacingRight=2;entryX=1.057;entryY=0.2;entryDx=0;entryDy=0;entryPerimeter=0;" parent="1" source="3qQfNFwAXlZ41oWte92f-26" target="3qQfNFwAXlZ41oWte92f-22" edge="1">
          <mxGeometry width="50" height="50" relative="1" as="geometry">
            <mxPoint x="2268.5" y="1338" as="sourcePoint"/>
            <mxPoint x="2015" y="1348" as="targetPoint"/>
          </mxGeometry>
        </mxCell>
        <mxCell id="3qQfNFwAXlZ41oWte92f-27" value="验证sessionToken" style="endArrow=classic;html=1;strokeWidth=1;comic=0;strokeColor=#000000;labelBorderColor=none;labelBackgroundColor=#ffffff;spacingLeft=2;spacingRight=2;exitX=1.083;exitY=0.028;exitDx=0;exitDy=0;exitPerimeter=0;" parent="1" source="3qQfNFwAXlZ41oWte92f-22" target="3qQfNFwAXlZ41oWte92f-26" edge="1">
          <mxGeometry width="50" height="50" relative="1" as="geometry">
            <mxPoint x="2015" y="1309" as="sourcePoint"/>
            <mxPoint x="2188.5" y="1309" as="targetPoint"/>
          </mxGeometry>
        </mxCell>
        <mxCell id="3qQfNFwAXlZ41oWte92f-39" value="携带临时&lt;br&gt;sessionToken（callback）&lt;br&gt;重定向到登录" style="endArrow=classic;html=1;strokeWidth=1;comic=0;strokeColor=#000000;labelBorderColor=none;labelBackgroundColor=#ffffff;spacingLeft=2;spacingRight=2;entryX=0.067;entryY=0.039;entryDx=0;entryDy=0;entryPerimeter=0;" parent="1" source="3qQfNFwAXlZ41oWte92f-22" target="3qQfNFwAXlZ41oWte92f-36" edge="1">
          <mxGeometry width="50" height="50" relative="1" as="geometry">
            <mxPoint x="2014.38" y="1373.4" as="sourcePoint"/>
            <mxPoint x="2198.5" y="1329" as="targetPoint"/>
          </mxGeometry>
        </mxCell>
        <mxCell id="3qQfNFwAXlZ41oWte92f-46" value="重定向到oauth/authorize" style="endArrow=none;html=1;strokeWidth=1;comic=0;strokeColor=#000000;labelBorderColor=none;labelBackgroundColor=#ffffff;spacingLeft=2;spacingRight=2;entryX=1.071;entryY=0.631;entryDx=0;entryDy=0;entryPerimeter=0;endFill=0;startArrow=classic;startFill=1;" parent="1" source="3qQfNFwAXlZ41oWte92f-45" target="3qQfNFwAXlZ41oWte92f-36" edge="1">
          <mxGeometry width="50" height="50" relative="1" as="geometry">
            <mxPoint x="2568.67" y="1439.5099999999998" as="sourcePoint"/>
            <mxPoint x="2394" y="1439.5099999999998" as="targetPoint"/>
          </mxGeometry>
        </mxCell>
        <mxCell id="3qQfNFwAXlZ41oWte92f-47" value="校验clientId+Scope+..." style="endArrow=classic;html=1;strokeWidth=1;comic=0;strokeColor=#000000;labelBorderColor=none;labelBackgroundColor=#ffffff;spacingLeft=2;spacingRight=2;entryX=-0.06;entryY=0.073;entryDx=0;entryDy=0;entryPerimeter=0;" parent="1" source="3qQfNFwAXlZ41oWte92f-45" target="3qQfNFwAXlZ41oWte92f-48" edge="1">
          <mxGeometry width="50" height="50" relative="1" as="geometry">
            <mxPoint x="2799.5" y="1446.1899999999998" as="sourcePoint"/>
            <mxPoint x="3290.5" y="1444.16" as="targetPoint"/>
          </mxGeometry>
        </mxCell>
        <mxCell id="3qQfNFwAXlZ41oWte92f-49" value="校验成功" style="endArrow=classic;html=1;strokeWidth=1;comic=0;strokeColor=#000000;labelBorderColor=none;labelBackgroundColor=#ffffff;spacingLeft=2;spacingRight=2;exitX=0.1;exitY=0.887;exitDx=0;exitDy=0;exitPerimeter=0;" parent="1" source="3qQfNFwAXlZ41oWte92f-48" target="3qQfNFwAXlZ41oWte92f-45" edge="1">
          <mxGeometry width="50" height="50" relative="1" as="geometry">
            <mxPoint x="3120" y="1457" as="sourcePoint"/>
            <mxPoint x="2799.5" y="1470.61" as="targetPoint"/>
          </mxGeometry>
        </mxCell>
        <mxCell id="3qQfNFwAXlZ41oWte92f-50" value="生成code并返回" style="endArrow=classic;html=1;strokeWidth=1;comic=0;strokeColor=#000000;labelBorderColor=none;labelBackgroundColor=#ffffff;spacingLeft=2;spacingRight=2;" parent="1" source="3qQfNFwAXlZ41oWte92f-45" edge="1">
          <mxGeometry width="50" height="50" relative="1" as="geometry">
            <mxPoint x="2789.88" y="1476.8500000000001" as="sourcePoint"/>
            <mxPoint x="2211" y="1476.8500000000001" as="targetPoint"/>
          </mxGeometry>
        </mxCell>
        <mxCell id="3qQfNFwAXlZ41oWte92f-42" value="返回code" style="endArrow=classic;html=1;strokeWidth=1;comic=0;strokeColor=#000000;labelBorderColor=none;labelBackgroundColor=#ffffff;spacingLeft=2;spacingRight=2;entryX=0.943;entryY=0.931;entryDx=0;entryDy=0;entryPerimeter=0;" parent="1" source="3qQfNFwAXlZ41oWte92f-36" target="3qQfNFwAXlZ41oWte92f-22" edge="1">
          <mxGeometry width="50" height="50" relative="1" as="geometry">
            <mxPoint x="2322" y="1478" as="sourcePoint"/>
            <mxPoint x="2015.33" y="1489.6000000000004" as="targetPoint"/>
          </mxGeometry>
        </mxCell>
        <mxCell id="3qQfNFwAXlZ41oWte92f-86" value="请求token clientId+scope+code&lt;br&gt;+secret" style="endArrow=classic;html=1;strokeWidth=1;comic=0;strokeColor=#000000;labelBorderColor=none;labelBackgroundColor=#ffffff;spacingLeft=2;spacingRight=2;exitX=1;exitY=0.5;exitDx=0;exitDy=0;" parent="1" source="76PlY3qgO6dOQQKfIqFN-110" target="3qQfNFwAXlZ41oWte92f-66" edge="1">
          <mxGeometry width="50" height="50" relative="1" as="geometry">
            <mxPoint x="2016.0699999999997" y="1582" as="sourcePoint"/>
            <mxPoint x="2201" y="1591.4" as="targetPoint"/>
          </mxGeometry>
        </mxCell>
        <mxCell id="3qQfNFwAXlZ41oWte92f-88" value="校验clientId+Scope+..." style="endArrow=classic;html=1;strokeWidth=1;comic=0;strokeColor=#000000;labelBorderColor=none;labelBackgroundColor=#ffffff;spacingLeft=2;spacingRight=2;entryX=0.067;entryY=0.133;entryDx=0;entryDy=0;entryPerimeter=0;" parent="1" source="3qQfNFwAXlZ41oWte92f-66" target="3qQfNFwAXlZ41oWte92f-87" edge="1">
          <mxGeometry width="50" height="50" relative="1" as="geometry">
            <mxPoint x="3120" y="1355.19" as="sourcePoint"/>
            <mxPoint x="3293.4" y="1355.19" as="targetPoint"/>
          </mxGeometry>
        </mxCell>
        <mxCell id="3qQfNFwAXlZ41oWte92f-89" value="校验成功" style="endArrow=classic;html=1;strokeWidth=1;comic=0;strokeColor=#000000;labelBorderColor=none;labelBackgroundColor=#ffffff;spacingLeft=2;spacingRight=2;entryX=1.107;entryY=0.41;entryDx=0;entryDy=0;entryPerimeter=0;" parent="1" source="3qQfNFwAXlZ41oWte92f-87" target="3qQfNFwAXlZ41oWte92f-66" edge="1">
          <mxGeometry width="50" height="50" relative="1" as="geometry">
            <mxPoint x="3295" y="1379.6099999999997" as="sourcePoint"/>
            <mxPoint x="3477" y="1634" as="targetPoint"/>
          </mxGeometry>
        </mxCell>
        <mxCell id="3qQfNFwAXlZ41oWte92f-91" value="请求accessToken" style="endArrow=classic;html=1;strokeWidth=1;comic=0;strokeColor=#000000;labelBorderColor=none;labelBackgroundColor=#ffffff;spacingLeft=2;spacingRight=2;" parent="1" source="3qQfNFwAXlZ41oWte92f-66" target="3qQfNFwAXlZ41oWte92f-90" edge="1">
          <mxGeometry width="50" height="50" relative="1" as="geometry">
            <mxPoint x="3488" y="1616.9899999999998" as="sourcePoint"/>
            <mxPoint x="3663.17" y="1616.9899999999998" as="targetPoint"/>
          </mxGeometry>
        </mxCell>
        <mxCell id="3qQfNFwAXlZ41oWte92f-92" value="返回accessToken" style="endArrow=classic;html=1;strokeWidth=1;comic=0;strokeColor=#000000;labelBorderColor=none;labelBackgroundColor=#ffffff;spacingLeft=2;spacingRight=2;entryX=1.107;entryY=0.844;entryDx=0;entryDy=0;entryPerimeter=0;" parent="1" source="3qQfNFwAXlZ41oWte92f-90" target="3qQfNFwAXlZ41oWte92f-66" edge="1">
          <mxGeometry width="50" height="50" relative="1" as="geometry">
            <mxPoint x="3662.5" y="1643" as="sourcePoint"/>
            <mxPoint x="3480" y="1679" as="targetPoint"/>
          </mxGeometry>
        </mxCell>
        <mxCell id="3qQfNFwAXlZ41oWte92f-95" value="raging-hub代理获取rancher信息" style="ellipse;whiteSpace=wrap;html=1;rounded=0;comic=1;opacity=40;align=center;fillColor=#e1d5e7;strokeColor=#9673a6;" parent="1" vertex="1">
          <mxGeometry x="1728" y="1908" width="110" height="40" as="geometry"/>
        </mxCell>
        <mxCell id="3qQfNFwAXlZ41oWte92f-96" value="&lt;span&gt;auth middleware&lt;/span&gt;" style="shape=umlLifeline;perimeter=lifelinePerimeter;whiteSpace=wrap;html=1;container=1;collapsible=0;recursiveResize=0;outlineConnect=0;strokeColor=#b46504;fontStyle=0;fillColor=#fad7ac;" parent="1" vertex="1">
          <mxGeometry x="1951.5" y="1848" width="112" height="700" as="geometry"/>
        </mxCell>
        <mxCell id="3qQfNFwAXlZ41oWte92f-115" value="" style="html=1;points=[];perimeter=orthogonalPerimeter;strokeColor=#000000;align=center;" parent="3qQfNFwAXlZ41oWte92f-96" vertex="1">
          <mxGeometry x="51" y="80" width="10" height="230" as="geometry"/>
        </mxCell>
        <mxCell id="3qQfNFwAXlZ41oWte92f-138" value="" style="html=1;points=[];perimeter=orthogonalPerimeter;strokeColor=#000000;align=center;" parent="3qQfNFwAXlZ41oWte92f-96" vertex="1">
          <mxGeometry x="49" y="366" width="10" height="294" as="geometry"/>
        </mxCell>
        <mxCell id="3qQfNFwAXlZ41oWte92f-98" value="sessionToken Mgr" style="rounded=1;whiteSpace=wrap;html=1;fillColor=#b0e3e6;strokeColor=#0e8088;shadow=0;comic=1;align=left;verticalAlign=top;fontStyle=0" parent="1" vertex="1">
          <mxGeometry x="630" y="156" width="106" height="24" as="geometry"/>
        </mxCell>
        <mxCell id="3qQfNFwAXlZ41oWte92f-100" value="validator" style="rounded=1;whiteSpace=wrap;html=1;fillColor=#cce5ff;strokeColor=#36393d;shadow=0;comic=1;" parent="1" vertex="1">
          <mxGeometry x="528.5" y="161" width="80" height="40" as="geometry"/>
        </mxCell>
        <mxCell id="3qQfNFwAXlZ41oWte92f-101" value="accessToken Mgr" style="rounded=1;whiteSpace=wrap;html=1;fillColor=#b0e3e6;strokeColor=#0e8088;shadow=0;comic=1;align=left;verticalAlign=top;fontStyle=0" parent="1" vertex="1">
          <mxGeometry x="630" y="183" width="105" height="24" as="geometry"/>
        </mxCell>
        <mxCell id="3qQfNFwAXlZ41oWte92f-110" value="sessionToken Mgr" style="rounded=1;whiteSpace=wrap;html=1;fillColor=#bac8d3;strokeColor=#23445d;shadow=0;comic=1;align=center;verticalAlign=middle;fontStyle=0;opacity=70;" parent="1" vertex="1">
          <mxGeometry x="1083.5" y="232" width="105" height="46" as="geometry"/>
        </mxCell>
        <mxCell id="3qQfNFwAXlZ41oWte92f-111" value="accessToken Mgr" style="rounded=1;whiteSpace=wrap;html=1;fillColor=#fad7ac;strokeColor=#b46504;shadow=0;comic=1;align=center;verticalAlign=middle;fontStyle=0;opacity=70;" parent="1" vertex="1">
          <mxGeometry x="1214" y="232" width="105" height="46" as="geometry"/>
        </mxCell>
        <mxCell id="3qQfNFwAXlZ41oWte92f-112" value="&lt;span&gt;sessionToken Mgr&lt;/span&gt;" style="shape=umlLifeline;perimeter=lifelinePerimeter;whiteSpace=wrap;html=1;container=1;collapsible=0;recursiveResize=0;outlineConnect=0;strokeColor=#b46504;fontStyle=0;fillColor=#fad7ac;" parent="1" vertex="1">
          <mxGeometry x="2133" y="1848" width="112" height="700" as="geometry"/>
        </mxCell>
        <mxCell id="3qQfNFwAXlZ41oWte92f-140" value="" style="html=1;points=[];perimeter=orthogonalPerimeter;strokeColor=#000000;align=center;" parent="3qQfNFwAXlZ41oWte92f-112" vertex="1">
          <mxGeometry x="51" y="364" width="10" height="256" as="geometry"/>
        </mxCell>
        <mxCell id="DDRdRkafaV5jgmy42ejv-18" value="" style="html=1;points=[];perimeter=orthogonalPerimeter;strokeColor=#000000;align=center;" parent="3qQfNFwAXlZ41oWte92f-112" vertex="1">
          <mxGeometry x="55" y="528" width="10" height="20" as="geometry"/>
        </mxCell>
        <mxCell id="DDRdRkafaV5jgmy42ejv-19" value="存储" style="edgeStyle=orthogonalEdgeStyle;html=1;align=left;spacingLeft=2;endArrow=block;rounded=0;entryX=1;entryY=0;labelBackgroundColor=#ffffff;strokeColor=#000000;" parent="3qQfNFwAXlZ41oWte92f-112" target="DDRdRkafaV5jgmy42ejv-18" edge="1">
          <mxGeometry relative="1" as="geometry">
            <mxPoint x="59.111111111111086" y="518" as="sourcePoint"/>
            <Array as="points">
              <mxPoint x="59" y="518"/>
              <mxPoint x="85" y="518"/>
              <mxPoint x="85" y="528"/>
            </Array>
          </mxGeometry>
        </mxCell>
        <mxCell id="3qQfNFwAXlZ41oWte92f-118" value="" style="html=1;points=[];perimeter=orthogonalPerimeter;strokeColor=#000000;align=center;" parent="3qQfNFwAXlZ41oWte92f-112" vertex="1">
          <mxGeometry x="51" y="90" width="10" height="130" as="geometry"/>
        </mxCell>
        <mxCell id="3qQfNFwAXlZ41oWte92f-113" value="user manager" style="shape=umlLifeline;perimeter=lifelinePerimeter;whiteSpace=wrap;html=1;container=1;collapsible=0;recursiveResize=0;outlineConnect=0;strokeColor=#b46504;fontStyle=0;fillColor=#fad7ac;" parent="1" vertex="1">
          <mxGeometry x="2496" y="1848" width="112" height="700" as="geometry"/>
        </mxCell>
        <mxCell id="3qQfNFwAXlZ41oWte92f-126" value="" style="html=1;points=[];perimeter=orthogonalPerimeter;strokeColor=#000000;align=center;" parent="3qQfNFwAXlZ41oWte92f-113" vertex="1">
          <mxGeometry x="51" y="180" width="10" height="90" as="geometry"/>
        </mxCell>
        <mxCell id="DDRdRkafaV5jgmy42ejv-16" value="" style="html=1;points=[];perimeter=orthogonalPerimeter;strokeColor=#000000;align=center;" parent="3qQfNFwAXlZ41oWte92f-113" vertex="1">
          <mxGeometry x="56" y="230" width="10" height="20" as="geometry"/>
        </mxCell>
        <mxCell id="DDRdRkafaV5jgmy42ejv-17" value="存储" style="edgeStyle=orthogonalEdgeStyle;html=1;align=left;spacingLeft=2;endArrow=block;rounded=0;entryX=1;entryY=0;labelBackgroundColor=#ffffff;strokeColor=#000000;" parent="3qQfNFwAXlZ41oWte92f-113" target="DDRdRkafaV5jgmy42ejv-16" edge="1">
          <mxGeometry relative="1" as="geometry">
            <mxPoint x="60.333333333333485" y="220" as="sourcePoint"/>
            <Array as="points">
              <mxPoint x="60" y="220"/>
              <mxPoint x="86" y="220"/>
              <mxPoint x="86" y="230"/>
            </Array>
          </mxGeometry>
        </mxCell>
        <mxCell id="3qQfNFwAXlZ41oWte92f-153" value="" style="html=1;points=[];perimeter=orthogonalPerimeter;strokeColor=#000000;align=center;" parent="3qQfNFwAXlZ41oWte92f-113" vertex="1">
          <mxGeometry x="51" y="549" width="10" height="90" as="geometry"/>
        </mxCell>
        <mxCell id="3qQfNFwAXlZ41oWte92f-165" value="" style="html=1;points=[];perimeter=orthogonalPerimeter;strokeColor=#000000;align=center;" parent="3qQfNFwAXlZ41oWte92f-113" vertex="1">
          <mxGeometry x="56" y="584" width="10" height="20" as="geometry"/>
        </mxCell>
        <mxCell id="3qQfNFwAXlZ41oWte92f-166" value="存储" style="edgeStyle=orthogonalEdgeStyle;html=1;align=left;spacingLeft=2;endArrow=block;rounded=0;entryX=1;entryY=0;labelBackgroundColor=#ffffff;strokeColor=#000000;" parent="3qQfNFwAXlZ41oWte92f-113" target="3qQfNFwAXlZ41oWte92f-165" edge="1">
          <mxGeometry relative="1" as="geometry">
            <mxPoint x="60" y="574" as="sourcePoint"/>
            <Array as="points">
              <mxPoint x="60" y="574"/>
              <mxPoint x="86" y="574"/>
              <mxPoint x="86" y="584"/>
            </Array>
          </mxGeometry>
        </mxCell>
        <mxCell id="3qQfNFwAXlZ41oWte92f-114" value="proxy" style="shape=umlLifeline;perimeter=lifelinePerimeter;whiteSpace=wrap;html=1;container=1;collapsible=0;recursiveResize=0;outlineConnect=0;strokeColor=#b46504;fontStyle=0;fillColor=#fad7ac;" parent="1" vertex="1">
          <mxGeometry x="2678" y="1848" width="112" height="700" as="geometry"/>
        </mxCell>
        <mxCell id="3qQfNFwAXlZ41oWte92f-128" value="" style="html=1;points=[];perimeter=orthogonalPerimeter;strokeColor=#000000;align=center;" parent="3qQfNFwAXlZ41oWte92f-114" vertex="1">
          <mxGeometry x="51" y="260" width="10" height="15" as="geometry"/>
        </mxCell>
        <mxCell id="3qQfNFwAXlZ41oWte92f-154" value="" style="html=1;points=[];perimeter=orthogonalPerimeter;strokeColor=#000000;align=center;" parent="3qQfNFwAXlZ41oWte92f-114" vertex="1">
          <mxGeometry x="51" y="610" width="10" height="23" as="geometry"/>
        </mxCell>
        <mxCell id="3qQfNFwAXlZ41oWte92f-116" value="携带raging-hub&lt;br&gt;sessionToken请求" style="endArrow=classic;html=1;strokeWidth=1;comic=0;strokeColor=#000000;labelBorderColor=none;labelBackgroundColor=#ffffff;spacingLeft=2;spacingRight=2;exitX=1;exitY=0.5;exitDx=0;exitDy=0;" parent="1" source="3qQfNFwAXlZ41oWte92f-95" target="3qQfNFwAXlZ41oWte92f-115" edge="1">
          <mxGeometry width="50" height="50" relative="1" as="geometry">
            <mxPoint x="1825.5000000000025" y="1918" as="sourcePoint"/>
            <mxPoint x="1993.5" y="1918" as="targetPoint"/>
          </mxGeometry>
        </mxCell>
        <mxCell id="3qQfNFwAXlZ41oWte92f-117" value="请求校验sessionToken" style="endArrow=classic;html=1;strokeWidth=1;comic=0;strokeColor=#000000;labelBorderColor=none;labelBackgroundColor=#ffffff;spacingLeft=2;spacingRight=2;exitX=1.221;exitY=0.073;exitDx=0;exitDy=0;exitPerimeter=0;" parent="1" source="3qQfNFwAXlZ41oWte92f-115" target="3qQfNFwAXlZ41oWte92f-118" edge="1">
          <mxGeometry width="50" height="50" relative="1" as="geometry">
            <mxPoint x="2020" y="1947.5" as="sourcePoint"/>
            <mxPoint x="2184.5" y="1947.5" as="targetPoint"/>
          </mxGeometry>
        </mxCell>
        <mxCell id="3qQfNFwAXlZ41oWte92f-119" value="通过redis校验" style="endArrow=classic;html=1;strokeWidth=1;comic=0;strokeColor=#000000;labelBorderColor=none;labelBackgroundColor=#ffffff;spacingLeft=2;spacingRight=2;exitX=1.181;exitY=0.148;exitDx=0;exitDy=0;exitPerimeter=0;" parent="1" source="3qQfNFwAXlZ41oWte92f-118" target="3qQfNFwAXlZ41oWte92f-120" edge="1">
          <mxGeometry width="50" height="50" relative="1" as="geometry">
            <mxPoint x="2170.67" y="1958.04" as="sourcePoint"/>
            <mxPoint x="2343" y="1958.04" as="targetPoint"/>
          </mxGeometry>
        </mxCell>
        <mxCell id="3qQfNFwAXlZ41oWte92f-121" value="校验失败" style="endArrow=classic;html=1;strokeWidth=1;comic=0;strokeColor=#000000;labelBorderColor=none;labelBackgroundColor=#ffffff;spacingLeft=2;spacingRight=2;entryX=1.217;entryY=0.313;entryDx=0;entryDy=0;entryPerimeter=0;" parent="1" source="3qQfNFwAXlZ41oWte92f-120" target="3qQfNFwAXlZ41oWte92f-118" edge="1">
          <mxGeometry width="50" height="50" relative="1" as="geometry">
            <mxPoint x="2208.31" y="1959.8400000000001" as="sourcePoint"/>
            <mxPoint x="2230" y="1978" as="targetPoint"/>
          </mxGeometry>
        </mxCell>
        <mxCell id="3qQfNFwAXlZ41oWte92f-123" value="去raging-hub校验" style="endArrow=classic;html=1;strokeWidth=1;comic=0;strokeColor=#000000;labelBorderColor=none;labelBackgroundColor=#ffffff;spacingLeft=2;spacingRight=2;exitX=1.043;exitY=0.404;exitDx=0;exitDy=0;exitPerimeter=0;" parent="1" source="3qQfNFwAXlZ41oWte92f-118" target="3qQfNFwAXlZ41oWte92f-122" edge="1">
          <mxGeometry width="50" height="50" relative="1" as="geometry">
            <mxPoint x="2263.81" y="2007.8199999999997" as="sourcePoint"/>
            <mxPoint x="2436" y="2007.8199999999997" as="targetPoint"/>
          </mxGeometry>
        </mxCell>
        <mxCell id="3qQfNFwAXlZ41oWte92f-124" value="校验成功,并返回对应用户的员工号" style="endArrow=classic;html=1;strokeWidth=1;comic=0;strokeColor=#000000;labelBorderColor=none;labelBackgroundColor=#ffffff;spacingLeft=2;spacingRight=2;entryX=1.3;entryY=0.588;entryDx=0;entryDy=0;entryPerimeter=0;" parent="1" source="3qQfNFwAXlZ41oWte92f-122" target="3qQfNFwAXlZ41oWte92f-118" edge="1">
          <mxGeometry width="50" height="50" relative="1" as="geometry">
            <mxPoint x="2260.74" y="2017.9099999999999" as="sourcePoint"/>
            <mxPoint x="2150" y="2038" as="targetPoint"/>
          </mxGeometry>
        </mxCell>
        <mxCell id="3qQfNFwAXlZ41oWte92f-127" value="去user manager获取数据" style="endArrow=classic;html=1;strokeWidth=1;comic=0;strokeColor=#000000;labelBorderColor=none;labelBackgroundColor=#ffffff;spacingLeft=2;spacingRight=2;exitX=0.993;exitY=0.73;exitDx=0;exitDy=0;exitPerimeter=0;" parent="1" source="3qQfNFwAXlZ41oWte92f-118" target="3qQfNFwAXlZ41oWte92f-126" edge="1">
          <mxGeometry width="50" height="50" relative="1" as="geometry">
            <mxPoint x="2206.9300000000003" y="2000.52" as="sourcePoint"/>
            <mxPoint x="2564.5" y="2000.52" as="targetPoint"/>
          </mxGeometry>
        </mxCell>
        <mxCell id="3qQfNFwAXlZ41oWte92f-129" value="获取app token" style="endArrow=classic;html=1;strokeWidth=1;comic=0;strokeColor=#000000;labelBorderColor=none;labelBackgroundColor=#ffffff;spacingLeft=2;spacingRight=2;entryX=-0.119;entryY=0.095;entryDx=0;entryDy=0;entryPerimeter=0;" parent="1" source="3qQfNFwAXlZ41oWte92f-126" target="3qQfNFwAXlZ41oWte92f-132" edge="1">
          <mxGeometry width="50" height="50" relative="1" as="geometry">
            <mxPoint x="3026.07" y="2038.8599999999997" as="sourcePoint"/>
            <mxPoint x="3348" y="2038.8599999999997" as="targetPoint"/>
          </mxGeometry>
        </mxCell>
        <mxCell id="3qQfNFwAXlZ41oWte92f-130" value="返回token" style="endArrow=classic;html=1;strokeWidth=1;comic=0;strokeColor=#000000;labelBorderColor=none;labelBackgroundColor=#ffffff;spacingLeft=2;spacingRight=2;exitX=0.036;exitY=0.724;exitDx=0;exitDy=0;exitPerimeter=0;" parent="1" source="3qQfNFwAXlZ41oWte92f-132" target="3qQfNFwAXlZ41oWte92f-126" edge="1">
          <mxGeometry width="50" height="50" relative="1" as="geometry">
            <mxPoint x="3312" y="2108" as="sourcePoint"/>
            <mxPoint x="3393" y="2052.5800000000004" as="targetPoint"/>
          </mxGeometry>
        </mxCell>
        <mxCell id="3qQfNFwAXlZ41oWte92f-131" value="rancher" style="shape=umlLifeline;perimeter=lifelinePerimeter;whiteSpace=wrap;html=1;container=1;collapsible=0;recursiveResize=0;outlineConnect=0;strokeColor=#b46504;fontStyle=0;fillColor=#fad7ac;" parent="1" vertex="1">
          <mxGeometry x="2859" y="1848" width="112" height="700" as="geometry"/>
        </mxCell>
        <mxCell id="3qQfNFwAXlZ41oWte92f-132" value="" style="html=1;points=[];perimeter=orthogonalPerimeter;strokeColor=#000000;align=center;" parent="3qQfNFwAXlZ41oWte92f-131" vertex="1">
          <mxGeometry x="51" y="190" width="10" height="30" as="geometry"/>
        </mxCell>
        <mxCell id="3qQfNFwAXlZ41oWte92f-134" value="" style="html=1;points=[];perimeter=orthogonalPerimeter;strokeColor=#000000;align=center;" parent="3qQfNFwAXlZ41oWte92f-131" vertex="1">
          <mxGeometry x="51" y="270" width="10" height="30" as="geometry"/>
        </mxCell>
        <mxCell id="3qQfNFwAXlZ41oWte92f-157" value="" style="html=1;points=[];perimeter=orthogonalPerimeter;strokeColor=#000000;align=center;" parent="3qQfNFwAXlZ41oWte92f-131" vertex="1">
          <mxGeometry x="51" y="549" width="10" height="20" as="geometry"/>
        </mxCell>
        <mxCell id="3qQfNFwAXlZ41oWte92f-158" value="" style="html=1;points=[];perimeter=orthogonalPerimeter;strokeColor=#000000;align=center;" parent="3qQfNFwAXlZ41oWte92f-131" vertex="1">
          <mxGeometry x="51" y="610" width="10" height="40" as="geometry"/>
        </mxCell>
        <mxCell id="3qQfNFwAXlZ41oWte92f-133" value="转到代理" style="endArrow=classic;html=1;strokeWidth=1;comic=0;strokeColor=#000000;labelBorderColor=none;labelBackgroundColor=#ffffff;spacingLeft=2;spacingRight=2;" parent="1" source="3qQfNFwAXlZ41oWte92f-126" target="3qQfNFwAXlZ41oWte92f-128" edge="1">
          <mxGeometry width="50" height="50" relative="1" as="geometry">
            <mxPoint x="3223.5699999999997" y="2050.32" as="sourcePoint"/>
            <mxPoint x="3545.5" y="2050.32" as="targetPoint"/>
          </mxGeometry>
        </mxCell>
        <mxCell id="3qQfNFwAXlZ41oWte92f-135" value="代理" style="endArrow=classic;html=1;strokeWidth=1;comic=0;strokeColor=#000000;labelBorderColor=none;labelBackgroundColor=#ffffff;spacingLeft=2;spacingRight=2;entryX=0.093;entryY=0.171;entryDx=0;entryDy=0;entryPerimeter=0;" parent="1" source="3qQfNFwAXlZ41oWte92f-128" target="3qQfNFwAXlZ41oWte92f-134" edge="1">
          <mxGeometry width="50" height="50" relative="1" as="geometry">
            <mxPoint x="3402" y="2083" as="sourcePoint"/>
            <mxPoint x="3393" y="2083" as="targetPoint"/>
          </mxGeometry>
        </mxCell>
        <mxCell id="3qQfNFwAXlZ41oWte92f-136" value="返回数据" style="endArrow=classic;html=1;strokeWidth=1;comic=0;strokeColor=#000000;labelBorderColor=none;labelBackgroundColor=#ffffff;spacingLeft=2;spacingRight=2;exitX=-0.25;exitY=0.891;exitDx=0;exitDy=0;exitPerimeter=0;" parent="1" source="3qQfNFwAXlZ41oWte92f-134" target="3qQfNFwAXlZ41oWte92f-115" edge="1">
          <mxGeometry width="50" height="50" relative="1" as="geometry">
            <mxPoint x="3220" y="2108" as="sourcePoint"/>
            <mxPoint x="3234.43" y="2093.13" as="targetPoint"/>
          </mxGeometry>
        </mxCell>
        <mxCell id="3qQfNFwAXlZ41oWte92f-137" value="用户直接请求数据" style="ellipse;whiteSpace=wrap;html=1;rounded=0;comic=1;opacity=40;align=center;fillColor=#e1d5e7;strokeColor=#9673a6;" parent="1" vertex="1">
          <mxGeometry x="1728" y="2194" width="110" height="40" as="geometry"/>
        </mxCell>
        <mxCell id="3qQfNFwAXlZ41oWte92f-139" value="发送请求" style="endArrow=classic;html=1;strokeWidth=1;comic=0;strokeColor=#000000;labelBorderColor=none;labelBackgroundColor=#ffffff;spacingLeft=2;spacingRight=2;exitX=1;exitY=0.5;exitDx=0;exitDy=0;" parent="1" source="3qQfNFwAXlZ41oWte92f-137" target="3qQfNFwAXlZ41oWte92f-138" edge="1">
          <mxGeometry width="50" height="50" relative="1" as="geometry">
            <mxPoint x="1827.5" y="2264" as="sourcePoint"/>
            <mxPoint x="1992" y="2264" as="targetPoint"/>
          </mxGeometry>
        </mxCell>
        <mxCell id="3qQfNFwAXlZ41oWte92f-141" value="请求校验sessionToken" style="endArrow=classic;html=1;strokeWidth=1;comic=0;strokeColor=#000000;labelBorderColor=none;labelBackgroundColor=#ffffff;spacingLeft=2;spacingRight=2;entryX=0.183;entryY=0.063;entryDx=0;entryDy=0;entryPerimeter=0;" parent="1" source="3qQfNFwAXlZ41oWte92f-138" target="3qQfNFwAXlZ41oWte92f-140" edge="1">
          <mxGeometry width="50" height="50" relative="1" as="geometry">
            <mxPoint x="2206.43" y="1938.9" as="sourcePoint"/>
            <mxPoint x="2900.5" y="1938.9" as="targetPoint"/>
          </mxGeometry>
        </mxCell>
        <mxCell id="3qQfNFwAXlZ41oWte92f-142" value="db2&lt;br&gt;sessionToken" style="shape=umlLifeline;perimeter=lifelinePerimeter;whiteSpace=wrap;html=1;container=1;collapsible=0;recursiveResize=0;outlineConnect=0;strokeColor=#b46504;fontStyle=0;fillColor=#fad7ac;" parent="1" vertex="1">
          <mxGeometry x="2315" y="1848" width="112" height="700" as="geometry"/>
        </mxCell>
        <mxCell id="3qQfNFwAXlZ41oWte92f-143" value="" style="html=1;points=[];perimeter=orthogonalPerimeter;strokeColor=#000000;align=center;" parent="3qQfNFwAXlZ41oWte92f-142" vertex="1">
          <mxGeometry x="53" y="376" width="10" height="50" as="geometry"/>
        </mxCell>
        <mxCell id="3qQfNFwAXlZ41oWte92f-120" value="" style="html=1;points=[];perimeter=orthogonalPerimeter;strokeColor=#000000;align=center;" parent="3qQfNFwAXlZ41oWte92f-142" vertex="1">
          <mxGeometry x="51.5" y="100" width="10" height="30" as="geometry"/>
        </mxCell>
        <mxCell id="3qQfNFwAXlZ41oWte92f-144" value="raging-hub" style="shape=umlLifeline;perimeter=lifelinePerimeter;whiteSpace=wrap;html=1;container=1;collapsible=0;recursiveResize=0;outlineConnect=0;strokeColor=#10739e;fontStyle=0;fillColor=#b1ddf0;" parent="1" vertex="1">
          <mxGeometry x="3040.5" y="1848" width="112" height="700" as="geometry"/>
        </mxCell>
        <mxCell id="3qQfNFwAXlZ41oWte92f-145" value="" style="html=1;points=[];perimeter=orthogonalPerimeter;strokeColor=#000000;align=center;" parent="3qQfNFwAXlZ41oWte92f-144" vertex="1">
          <mxGeometry x="51" y="429" width="10" height="81" as="geometry"/>
        </mxCell>
        <mxCell id="3qQfNFwAXlZ41oWte92f-122" value="" style="html=1;points=[];perimeter=orthogonalPerimeter;strokeColor=#000000;align=center;" parent="3qQfNFwAXlZ41oWte92f-144" vertex="1">
          <mxGeometry x="51" y="140" width="10" height="30" as="geometry"/>
        </mxCell>
        <mxCell id="3qQfNFwAXlZ41oWte92f-148" value="redis校验" style="endArrow=classic;html=1;strokeWidth=1;comic=0;strokeColor=#000000;labelBorderColor=none;labelBackgroundColor=#ffffff;spacingLeft=2;spacingRight=2;exitX=1.1;exitY=0.087;exitDx=0;exitDy=0;exitPerimeter=0;" parent="1" source="3qQfNFwAXlZ41oWte92f-140" target="3qQfNFwAXlZ41oWte92f-143" edge="1">
          <mxGeometry width="50" height="50" relative="1" as="geometry">
            <mxPoint x="2556.4300000000003" y="2174.02" as="sourcePoint"/>
            <mxPoint x="2914" y="2174.02" as="targetPoint"/>
          </mxGeometry>
        </mxCell>
        <mxCell id="3qQfNFwAXlZ41oWte92f-149" value="校验失败" style="endArrow=classic;html=1;strokeWidth=1;comic=0;strokeColor=#000000;labelBorderColor=none;labelBackgroundColor=#ffffff;spacingLeft=2;spacingRight=2;entryX=1.235;entryY=0.241;entryDx=0;entryDy=0;entryPerimeter=0;" parent="1" source="3qQfNFwAXlZ41oWte92f-143" target="3qQfNFwAXlZ41oWte92f-140" edge="1">
          <mxGeometry width="50" height="50" relative="1" as="geometry">
            <mxPoint x="2737.83" y="2242.95" as="sourcePoint"/>
            <mxPoint x="2885" y="2242.95" as="targetPoint"/>
          </mxGeometry>
        </mxCell>
        <mxCell id="3qQfNFwAXlZ41oWte92f-150" value="重定向到uaa认证" style="endArrow=classic;html=1;strokeWidth=1;comic=0;strokeColor=#000000;labelBorderColor=none;labelBackgroundColor=#ffffff;spacingLeft=2;spacingRight=2;" parent="1" target="3qQfNFwAXlZ41oWte92f-145" edge="1">
          <mxGeometry width="50" height="50" relative="1" as="geometry">
            <mxPoint x="2195" y="2288" as="sourcePoint"/>
            <mxPoint x="2885.5" y="2242.95" as="targetPoint"/>
          </mxGeometry>
        </mxCell>
        <mxCell id="3qQfNFwAXlZ41oWte92f-152" value="认证成功，返回code" style="endArrow=classic;html=1;strokeWidth=1;comic=0;strokeColor=#000000;labelBorderColor=none;labelBackgroundColor=#ffffff;spacingLeft=2;spacingRight=2;entryX=1.118;entryY=0.379;entryDx=0;entryDy=0;entryPerimeter=0;" parent="1" source="3qQfNFwAXlZ41oWte92f-145" target="3qQfNFwAXlZ41oWte92f-140" edge="1">
          <mxGeometry width="50" height="50" relative="1" as="geometry">
            <mxPoint x="2900" y="2374" as="sourcePoint"/>
            <mxPoint x="2542" y="2309" as="targetPoint"/>
          </mxGeometry>
        </mxCell>
        <mxCell id="3qQfNFwAXlZ41oWte92f-162" value="去user manager获取数据" style="endArrow=classic;html=1;strokeWidth=1;comic=0;strokeColor=#000000;labelBorderColor=none;labelBackgroundColor=#ffffff;spacingLeft=2;spacingRight=2;exitX=1.033;exitY=0.769;exitDx=0;exitDy=0;exitPerimeter=0;" parent="1" source="3qQfNFwAXlZ41oWte92f-140" target="3qQfNFwAXlZ41oWte92f-153" edge="1">
          <mxGeometry width="50" height="50" relative="1" as="geometry">
            <mxPoint x="2541.22" y="2359.784" as="sourcePoint"/>
            <mxPoint x="3015" y="2359.784" as="targetPoint"/>
          </mxGeometry>
        </mxCell>
        <mxCell id="3qQfNFwAXlZ41oWte92f-163" value="返回数据" style="endArrow=classic;html=1;strokeWidth=1;comic=0;strokeColor=#000000;labelBorderColor=none;labelBackgroundColor=#ffffff;spacingLeft=2;spacingRight=2;entryX=1.282;entryY=0.959;entryDx=0;entryDy=0;entryPerimeter=0;" parent="1" source="3qQfNFwAXlZ41oWte92f-158" target="3qQfNFwAXlZ41oWte92f-138" edge="1">
          <mxGeometry width="50" height="50" relative="1" as="geometry">
            <mxPoint x="3518.5" y="2454.0499999999997" as="sourcePoint"/>
            <mxPoint x="1998" y="2454.0499999999997" as="targetPoint"/>
          </mxGeometry>
        </mxCell>
        <mxCell id="3qQfNFwAXlZ41oWte92f-160" value="转发请求" style="endArrow=classic;html=1;strokeWidth=1;comic=0;strokeColor=#000000;labelBorderColor=none;labelBackgroundColor=#ffffff;spacingLeft=2;spacingRight=2;entryX=0.093;entryY=0.171;entryDx=0;entryDy=0;entryPerimeter=0;" parent="1" source="3qQfNFwAXlZ41oWte92f-154" target="3qQfNFwAXlZ41oWte92f-158" edge="1">
          <mxGeometry width="50" height="50" relative="1" as="geometry">
            <mxPoint x="3402" y="2443" as="sourcePoint"/>
            <mxPoint x="3393" y="2443" as="targetPoint"/>
          </mxGeometry>
        </mxCell>
        <mxCell id="3qQfNFwAXlZ41oWte92f-159" value="转到代理" style="endArrow=classic;html=1;strokeWidth=1;comic=0;strokeColor=#000000;labelBorderColor=none;labelBackgroundColor=#ffffff;spacingLeft=2;spacingRight=2;" parent="1" source="3qQfNFwAXlZ41oWte92f-153" target="3qQfNFwAXlZ41oWte92f-154" edge="1">
          <mxGeometry width="50" height="50" relative="1" as="geometry">
            <mxPoint x="3070" y="2523" as="sourcePoint"/>
            <mxPoint x="3545.5" y="2410.32" as="targetPoint"/>
          </mxGeometry>
        </mxCell>
        <mxCell id="DDRdRkafaV5jgmy42ejv-1" value="&lt;b&gt;api router&lt;/b&gt;" style="rounded=1;whiteSpace=wrap;html=1;comic=1;verticalAlign=middle;align=center;fillColor=#f8cecc;strokeColor=#b85450;opacity=50;" parent="1" vertex="1">
          <mxGeometry x="1081" y="112" width="130" height="31" as="geometry"/>
        </mxCell>
        <mxCell id="3qQfNFwAXlZ41oWte92f-43" value="请求sessionToken" style="endArrow=classic;html=1;strokeWidth=1;comic=0;strokeColor=#000000;labelBorderColor=none;labelBackgroundColor=#ffffff;spacingLeft=2;spacingRight=2;entryX=0.05;entryY=0.072;entryDx=0;entryDy=0;entryPerimeter=0;" parent="1" source="3qQfNFwAXlZ41oWte92f-36" target="3qQfNFwAXlZ41oWte92f-37" edge="1">
          <mxGeometry width="50" height="50" relative="1" as="geometry">
            <mxPoint x="2421" y="1379.5300000000002" as="sourcePoint"/>
            <mxPoint x="2780.95" y="1379.5300000000002" as="targetPoint"/>
            <Array as="points"/>
          </mxGeometry>
        </mxCell>
        <mxCell id="3qQfNFwAXlZ41oWte92f-44" value="生成sessionToken" style="endArrow=classic;html=1;strokeWidth=1;comic=0;strokeColor=#000000;labelBorderColor=none;labelBackgroundColor=#ffffff;spacingLeft=2;spacingRight=2;exitX=0.117;exitY=0.817;exitDx=0;exitDy=0;exitPerimeter=0;" parent="1" source="3qQfNFwAXlZ41oWte92f-37" target="3qQfNFwAXlZ41oWte92f-36" edge="1">
          <mxGeometry width="50" height="50" relative="1" as="geometry">
            <mxPoint x="2421" y="1411.5" as="sourcePoint"/>
            <mxPoint x="2595.5" y="1411.5" as="targetPoint"/>
          </mxGeometry>
        </mxCell>
        <mxCell id="DDRdRkafaV5jgmy42ejv-9" value="" style="group" parent="1" vertex="1" connectable="0">
          <mxGeometry x="1700" y="958" width="200" height="90" as="geometry"/>
        </mxCell>
        <mxCell id="DDRdRkafaV5jgmy42ejv-3" value="raging-hub关键流程时序图" style="rounded=0;whiteSpace=wrap;html=1;verticalAlign=top;fontStyle=1" parent="DDRdRkafaV5jgmy42ejv-9" vertex="1">
          <mxGeometry width="200" height="90" as="geometry"/>
        </mxCell>
        <mxCell id="DDRdRkafaV5jgmy42ejv-4" value="" style="rounded=0;whiteSpace=wrap;html=1;fillColor=#fad7ac;strokeColor=#b46504;" parent="DDRdRkafaV5jgmy42ejv-9" vertex="1">
          <mxGeometry x="10" y="31.83333333333337" width="40" height="17.5" as="geometry"/>
        </mxCell>
        <mxCell id="DDRdRkafaV5jgmy42ejv-5" value="" style="rounded=0;whiteSpace=wrap;html=1;fillColor=#b1ddf0;strokeColor=#10739e;" parent="DDRdRkafaV5jgmy42ejv-9" vertex="1">
          <mxGeometry x="10" y="60.83333333333337" width="40" height="17.5" as="geometry"/>
        </mxCell>
        <mxCell id="DDRdRkafaV5jgmy42ejv-6" value="oauth2-server相关模块" style="text;html=1;resizable=0;points=[];autosize=1;align=left;verticalAlign=top;spacingTop=-4;" parent="DDRdRkafaV5jgmy42ejv-9" vertex="1">
          <mxGeometry x="60" y="59.66666666666663" width="140" height="20" as="geometry"/>
        </mxCell>
        <mxCell id="DDRdRkafaV5jgmy42ejv-7" value="登录相关功能模块" style="text;html=1;resizable=0;points=[];autosize=1;align=left;verticalAlign=top;spacingTop=-4;" parent="DDRdRkafaV5jgmy42ejv-9" vertex="1">
          <mxGeometry x="61" y="30.66666666666663" width="110" height="20" as="geometry"/>
        </mxCell>
        <mxCell id="DDRdRkafaV5jgmy42ejv-10" value="" style="group" parent="1" vertex="1" connectable="0">
          <mxGeometry x="1700" y="1798" width="200" height="90" as="geometry"/>
        </mxCell>
        <mxCell id="DDRdRkafaV5jgmy42ejv-11" value="uaa-fronted-proxy关键流程时序图" style="rounded=0;whiteSpace=wrap;html=1;verticalAlign=top;fontStyle=1" parent="DDRdRkafaV5jgmy42ejv-10" vertex="1">
          <mxGeometry width="200" height="90" as="geometry"/>
        </mxCell>
        <mxCell id="DDRdRkafaV5jgmy42ejv-12" value="" style="rounded=0;whiteSpace=wrap;html=1;fillColor=#fad7ac;strokeColor=#b46504;" parent="DDRdRkafaV5jgmy42ejv-10" vertex="1">
          <mxGeometry x="10" y="31.83333333333337" width="40" height="17.5" as="geometry"/>
        </mxCell>
        <mxCell id="DDRdRkafaV5jgmy42ejv-13" value="" style="rounded=0;whiteSpace=wrap;html=1;fillColor=#b1ddf0;strokeColor=#10739e;" parent="DDRdRkafaV5jgmy42ejv-10" vertex="1">
          <mxGeometry x="10" y="60.83333333333337" width="40" height="17.5" as="geometry"/>
        </mxCell>
        <mxCell id="DDRdRkafaV5jgmy42ejv-14" value="raging-hub" style="text;html=1;resizable=0;points=[];autosize=1;align=left;verticalAlign=top;spacingTop=-4;" parent="DDRdRkafaV5jgmy42ejv-10" vertex="1">
          <mxGeometry x="60" y="59.66666666666663" width="70" height="20" as="geometry"/>
        </mxCell>
        <mxCell id="DDRdRkafaV5jgmy42ejv-15" value="uaa-fronted-proxy" style="text;html=1;resizable=0;points=[];autosize=1;align=left;verticalAlign=top;spacingTop=-4;" parent="DDRdRkafaV5jgmy42ejv-10" vertex="1">
          <mxGeometry x="61" y="30.66666666666663" width="110" height="20" as="geometry"/>
        </mxCell>
        <mxCell id="3qQfNFwAXlZ41oWte92f-40" value="登录" style="endArrow=classic;html=1;strokeWidth=1;comic=0;strokeColor=#000000;labelBorderColor=none;labelBackgroundColor=#ffffff;spacingLeft=2;spacingRight=2;entryX=0.145;entryY=0.151;entryDx=0;entryDy=0;entryPerimeter=0;" parent="1" source="3qQfNFwAXlZ41oWte92f-36" target="3qQfNFwAXlZ41oWte92f-38" edge="1">
          <mxGeometry width="50" height="50" relative="1" as="geometry">
            <mxPoint x="2356.5" y="1381" as="sourcePoint"/>
            <mxPoint x="2532" y="1381" as="targetPoint"/>
            <Array as="points"/>
          </mxGeometry>
        </mxCell>
        <mxCell id="3qQfNFwAXlZ41oWte92f-41" value="返回成功" style="endArrow=classic;html=1;strokeWidth=1;comic=0;strokeColor=#000000;labelBorderColor=none;labelBackgroundColor=#ffffff;spacingLeft=2;spacingRight=2;exitX=0.093;exitY=0.965;exitDx=0;exitDy=0;exitPerimeter=0;" parent="1" source="3qQfNFwAXlZ41oWte92f-38" target="3qQfNFwAXlZ41oWte92f-36" edge="1">
          <mxGeometry width="50" height="50" relative="1" as="geometry">
            <mxPoint x="2532" y="1406" as="sourcePoint"/>
            <mxPoint x="2356.5" y="1406" as="targetPoint"/>
          </mxGeometry>
        </mxCell>
        <mxCell id="3qQfNFwAXlZ41oWte92f-155" value="获取app token" style="endArrow=classic;html=1;strokeWidth=1;comic=0;strokeColor=#000000;labelBorderColor=none;labelBackgroundColor=#ffffff;spacingLeft=2;spacingRight=2;exitX=0.95;exitY=0.047;exitDx=0;exitDy=0;exitPerimeter=0;" parent="1" source="3qQfNFwAXlZ41oWte92f-153" target="3qQfNFwAXlZ41oWte92f-157" edge="1">
          <mxGeometry width="50" height="50" relative="1" as="geometry">
            <mxPoint x="2838" y="2343" as="sourcePoint"/>
            <mxPoint x="3026" y="2358.02" as="targetPoint"/>
          </mxGeometry>
        </mxCell>
        <mxCell id="3qQfNFwAXlZ41oWte92f-156" value="返回token" style="endArrow=classic;html=1;strokeWidth=1;comic=0;strokeColor=#000000;labelBorderColor=none;labelBackgroundColor=#ffffff;spacingLeft=2;spacingRight=2;exitX=0.067;exitY=0.917;exitDx=0;exitDy=0;exitPerimeter=0;" parent="1" source="3qQfNFwAXlZ41oWte92f-157" target="3qQfNFwAXlZ41oWte92f-153" edge="1">
          <mxGeometry width="50" height="50" relative="1" as="geometry">
            <mxPoint x="2902.5" y="2468" as="sourcePoint"/>
            <mxPoint x="2803" y="2419.72" as="targetPoint"/>
          </mxGeometry>
        </mxCell>
        <mxCell id="DDRdRkafaV5jgmy42ejv-20" value="临时session, jwt关键内容" style="rounded=1;whiteSpace=wrap;html=1;align=center;verticalAlign=top;fontSize=16;fontStyle=1" parent="1" vertex="1">
          <mxGeometry x="1737" y="640" width="370" height="180" as="geometry"/>
        </mxCell>
        <mxCell id="DDRdRkafaV5jgmy42ejv-21" value="req: {call_back:xxx, clientId:xxx, scope:xxx}&lt;br&gt;userFrom: wx/ad/ldap&lt;br&gt;userId: 00101" style="rounded=0;whiteSpace=wrap;html=1;fontSize=16;align=left;" parent="1" vertex="1">
          <mxGeometry x="1757" y="675" width="330" height="130" as="geometry"/>
        </mxCell>
        <mxCell id="DDRdRkafaV5jgmy42ejv-22" value="uaa-fronted-proxy 需要的api" style="rounded=1;whiteSpace=wrap;html=1;align=center;verticalAlign=top;fontSize=16;fontStyle=1" parent="1" vertex="1">
          <mxGeometry x="1800" y="363" width="370" height="180" as="geometry"/>
        </mxCell>
        <mxCell id="DDRdRkafaV5jgmy42ejv-23" value="/oauth/authorize 获取code&lt;br&gt;/oauth/token&amp;nbsp; 换取token&lt;br&gt;&lt;br&gt;/session/auth 验证session是否有效" style="rounded=0;whiteSpace=wrap;html=1;fontSize=16;align=left;" parent="1" vertex="1">
          <mxGeometry x="1820" y="400" width="330" height="130" as="geometry"/>
        </mxCell>
        <mxCell id="DDRdRkafaV5jgmy42ejv-24" value="请求获取accessToken" style="endArrow=classic;html=1;strokeWidth=1;comic=0;strokeColor=#000000;labelBorderColor=none;labelBackgroundColor=#ffffff;spacingLeft=2;spacingRight=2;entryX=-0.284;entryY=0.593;entryDx=0;entryDy=0;entryPerimeter=0;" parent="1" source="3qQfNFwAXlZ41oWte92f-140" target="3qQfNFwAXlZ41oWte92f-145" edge="1">
          <mxGeometry width="50" height="50" relative="1" as="geometry">
            <mxPoint x="2205" y="2298" as="sourcePoint"/>
            <mxPoint x="3101.5" y="2298" as="targetPoint"/>
          </mxGeometry>
        </mxCell>
        <mxCell id="DDRdRkafaV5jgmy42ejv-25" value="认证成功，返回accessToken" style="endArrow=classic;html=1;strokeWidth=1;comic=0;strokeColor=#000000;labelBorderColor=none;labelBackgroundColor=#ffffff;spacingLeft=2;spacingRight=2;exitX=0.06;exitY=0.925;exitDx=0;exitDy=0;exitPerimeter=0;" parent="1" source="3qQfNFwAXlZ41oWte92f-145" target="3qQfNFwAXlZ41oWte92f-140" edge="1">
          <mxGeometry width="50" height="50" relative="1" as="geometry">
            <mxPoint x="3101.5" y="2319.0240000000003" as="sourcePoint"/>
            <mxPoint x="2205.18" y="2319.0240000000003" as="targetPoint"/>
          </mxGeometry>
        </mxCell>
        <mxCell id="DjlRrPvjS2F6TvQDkWPC-11" value="uaa-fronted-proxy" style="shape=umlLifeline;perimeter=lifelinePerimeter;whiteSpace=wrap;html=1;container=1;collapsible=0;recursiveResize=0;outlineConnect=0;rounded=0;comic=0;align=center;strokeWidth=1;flipH=1;flipV=0;strokeColor=#10739e;labelBorderColor=none;labelBackgroundColor=none;fillColor=#b1ddf0;" vertex="1" parent="1">
          <mxGeometry x="851.5" y="699.5" width="125" height="420" as="geometry"/>
        </mxCell>
        <mxCell id="DjlRrPvjS2F6TvQDkWPC-29" value="" style="html=1;points=[];perimeter=orthogonalPerimeter;rounded=0;comic=0;strokeWidth=1;align=center;strokeColor=#000000;labelBorderColor=none;labelBackgroundColor=none;" vertex="1" parent="DjlRrPvjS2F6TvQDkWPC-11">
          <mxGeometry x="58" y="106" width="10" height="134" as="geometry"/>
        </mxCell>
        <mxCell id="DjlRrPvjS2F6TvQDkWPC-33" value="" style="html=1;points=[];perimeter=orthogonalPerimeter;rounded=0;comic=0;strokeWidth=1;align=center;strokeColor=#000000;labelBorderColor=none;labelBackgroundColor=none;" vertex="1" parent="DjlRrPvjS2F6TvQDkWPC-11">
          <mxGeometry x="58" y="260.5" width="10" height="134" as="geometry"/>
        </mxCell>
        <mxCell id="DjlRrPvjS2F6TvQDkWPC-14" value="rancher" style="shape=umlLifeline;perimeter=lifelinePerimeter;whiteSpace=wrap;html=1;container=1;collapsible=0;recursiveResize=0;outlineConnect=0;rounded=0;comic=0;align=center;strokeWidth=1;flipH=1;flipV=0;strokeColor=#10739e;labelBorderColor=none;labelBackgroundColor=none;fillColor=#b1ddf0;" vertex="1" parent="1">
          <mxGeometry x="1359.5" y="699.5" width="125" height="420" as="geometry"/>
        </mxCell>
        <mxCell id="DjlRrPvjS2F6TvQDkWPC-39" value="" style="html=1;points=[];perimeter=orthogonalPerimeter;rounded=0;comic=0;strokeWidth=1;align=center;strokeColor=#000000;labelBorderColor=none;labelBackgroundColor=none;" vertex="1" parent="DjlRrPvjS2F6TvQDkWPC-14">
          <mxGeometry x="57.5" y="312.5" width="10" height="30" as="geometry"/>
        </mxCell>
        <mxCell id="DjlRrPvjS2F6TvQDkWPC-17" value="user manager" style="shape=umlLifeline;perimeter=lifelinePerimeter;whiteSpace=wrap;html=1;container=1;collapsible=0;recursiveResize=0;outlineConnect=0;rounded=0;comic=0;align=center;strokeWidth=1;flipH=1;flipV=0;strokeColor=#10739e;labelBorderColor=none;labelBackgroundColor=none;fillColor=#b1ddf0;" vertex="1" parent="1">
          <mxGeometry x="1021" y="699.5" width="125" height="420" as="geometry"/>
        </mxCell>
        <mxCell id="DjlRrPvjS2F6TvQDkWPC-34" value="" style="html=1;points=[];perimeter=orthogonalPerimeter;rounded=0;comic=0;strokeWidth=1;align=center;strokeColor=#000000;labelBorderColor=none;labelBackgroundColor=none;" vertex="1" parent="DjlRrPvjS2F6TvQDkWPC-17">
          <mxGeometry x="58" y="281" width="10" height="40" as="geometry"/>
        </mxCell>
        <mxCell id="DjlRrPvjS2F6TvQDkWPC-20" value="api-proxy" style="shape=umlLifeline;perimeter=lifelinePerimeter;whiteSpace=wrap;html=1;container=1;collapsible=0;recursiveResize=0;outlineConnect=0;rounded=0;comic=0;align=center;strokeWidth=1;flipH=1;flipV=0;strokeColor=#10739e;labelBorderColor=none;labelBackgroundColor=none;fillColor=#b1ddf0;" vertex="1" parent="1">
          <mxGeometry x="1190" y="699.5" width="125" height="420" as="geometry"/>
        </mxCell>
        <mxCell id="DjlRrPvjS2F6TvQDkWPC-36" value="" style="html=1;points=[];perimeter=orthogonalPerimeter;rounded=0;comic=0;strokeWidth=1;align=center;strokeColor=#000000;labelBorderColor=none;labelBackgroundColor=none;" vertex="1" parent="DjlRrPvjS2F6TvQDkWPC-20">
          <mxGeometry x="57.5" y="297.5" width="10" height="60" as="geometry"/>
        </mxCell>
        <mxCell id="DjlRrPvjS2F6TvQDkWPC-24" value="raging-hub" style="shape=umlLifeline;perimeter=lifelinePerimeter;whiteSpace=wrap;html=1;container=1;collapsible=0;recursiveResize=0;outlineConnect=0;rounded=0;comic=0;align=center;strokeWidth=1;flipH=1;flipV=0;strokeColor=#b46504;labelBorderColor=none;labelBackgroundColor=none;fillColor=#fad7ac;" vertex="1" parent="1">
          <mxGeometry x="546" y="699.5" width="125" height="420" as="geometry"/>
        </mxCell>
        <mxCell id="DjlRrPvjS2F6TvQDkWPC-26" value="" style="html=1;points=[];perimeter=orthogonalPerimeter;rounded=0;comic=0;strokeWidth=1;align=center;strokeColor=#000000;labelBorderColor=none;labelBackgroundColor=none;" vertex="1" parent="DjlRrPvjS2F6TvQDkWPC-24">
          <mxGeometry x="58" y="80" width="10" height="71" as="geometry"/>
        </mxCell>
        <mxCell id="DjlRrPvjS2F6TvQDkWPC-30" value="" style="html=1;points=[];perimeter=orthogonalPerimeter;rounded=0;comic=0;strokeWidth=1;align=center;strokeColor=#000000;labelBorderColor=none;labelBackgroundColor=none;" vertex="1" parent="DjlRrPvjS2F6TvQDkWPC-24">
          <mxGeometry x="58" y="231" width="10" height="39" as="geometry"/>
        </mxCell>
        <mxCell id="DjlRrPvjS2F6TvQDkWPC-44" value="" style="html=1;points=[];perimeter=orthogonalPerimeter;rounded=0;comic=0;strokeWidth=1;align=center;strokeColor=#000000;labelBorderColor=none;labelBackgroundColor=none;" vertex="1" parent="DjlRrPvjS2F6TvQDkWPC-24">
          <mxGeometry x="58" y="371" width="10" height="20" as="geometry"/>
        </mxCell>
        <mxCell id="DjlRrPvjS2F6TvQDkWPC-27" value="携带sessionToken请求数据" style="rounded=0;orthogonalLoop=1;jettySize=auto;html=1;exitX=1;exitY=0.107;exitDx=0;exitDy=0;exitPerimeter=0;" edge="1" parent="1" source="DjlRrPvjS2F6TvQDkWPC-72" target="DjlRrPvjS2F6TvQDkWPC-26">
          <mxGeometry relative="1" as="geometry"/>
        </mxCell>
        <mxCell id="DjlRrPvjS2F6TvQDkWPC-25" value="user" style="shape=umlActor;verticalLabelPosition=bottom;labelBackgroundColor=#ffffff;verticalAlign=top;html=1;outlineConnect=0;opacity=50;align=center;" vertex="1" parent="1">
          <mxGeometry x="153.5" y="760" width="30" height="60" as="geometry"/>
        </mxCell>
        <mxCell id="DjlRrPvjS2F6TvQDkWPC-28" value="携带有效sessionToken到rancher前置代理" style="rounded=0;orthogonalLoop=1;jettySize=auto;html=1;entryX=-0.143;entryY=0.024;entryDx=0;entryDy=0;entryPerimeter=0;" edge="1" parent="1" source="DjlRrPvjS2F6TvQDkWPC-26" target="DjlRrPvjS2F6TvQDkWPC-29">
          <mxGeometry relative="1" as="geometry">
            <mxPoint x="586" y="805" as="sourcePoint"/>
            <mxPoint x="827" y="805" as="targetPoint"/>
          </mxGeometry>
        </mxCell>
        <mxCell id="DjlRrPvjS2F6TvQDkWPC-31" value="使用sessionToken获取用户信息" style="rounded=0;orthogonalLoop=1;jettySize=auto;html=1;exitX=0.083;exitY=0.934;exitDx=0;exitDy=0;exitPerimeter=0;" edge="1" parent="1" source="DjlRrPvjS2F6TvQDkWPC-29" target="DjlRrPvjS2F6TvQDkWPC-30">
          <mxGeometry relative="1" as="geometry">
            <mxPoint x="601.5" y="929.8" as="sourcePoint"/>
            <mxPoint x="921.5700000000002" y="929.8" as="targetPoint"/>
          </mxGeometry>
        </mxCell>
        <mxCell id="DjlRrPvjS2F6TvQDkWPC-32" value="返回员工号" style="rounded=0;orthogonalLoop=1;jettySize=auto;html=1;entryX=0.133;entryY=0.055;entryDx=0;entryDy=0;entryPerimeter=0;" edge="1" parent="1" source="DjlRrPvjS2F6TvQDkWPC-30" target="DjlRrPvjS2F6TvQDkWPC-33">
          <mxGeometry relative="1" as="geometry">
            <mxPoint x="681.5" y="989.8" as="sourcePoint"/>
            <mxPoint x="900" y="970" as="targetPoint"/>
          </mxGeometry>
        </mxCell>
        <mxCell id="DjlRrPvjS2F6TvQDkWPC-35" value="next()" style="rounded=0;orthogonalLoop=1;jettySize=auto;html=1;exitX=1.145;exitY=0.165;exitDx=0;exitDy=0;exitPerimeter=0;" edge="1" parent="1" source="DjlRrPvjS2F6TvQDkWPC-33" target="DjlRrPvjS2F6TvQDkWPC-34">
          <mxGeometry relative="1" as="geometry">
            <mxPoint x="598" y="977.3699999999999" as="sourcePoint"/>
            <mxPoint x="920.8299999999999" y="977.3699999999999" as="targetPoint"/>
          </mxGeometry>
        </mxCell>
        <mxCell id="DjlRrPvjS2F6TvQDkWPC-40" value="携带rancherToken" style="rounded=0;orthogonalLoop=1;jettySize=auto;html=1;exitX=0.967;exitY=0.504;exitDx=0;exitDy=0;exitPerimeter=0;" edge="1" parent="1" source="DjlRrPvjS2F6TvQDkWPC-34" target="DjlRrPvjS2F6TvQDkWPC-36">
          <mxGeometry relative="1" as="geometry">
            <mxPoint x="1120" y="1020" as="sourcePoint"/>
            <mxPoint x="1088.5" y="992.1099999999999" as="targetPoint"/>
          </mxGeometry>
        </mxCell>
        <mxCell id="DjlRrPvjS2F6TvQDkWPC-41" value="api请求" style="rounded=0;orthogonalLoop=1;jettySize=auto;html=1;exitX=1.07;exitY=0.313;exitDx=0;exitDy=0;exitPerimeter=0;" edge="1" parent="1" source="DjlRrPvjS2F6TvQDkWPC-36" target="DjlRrPvjS2F6TvQDkWPC-39">
          <mxGeometry relative="1" as="geometry">
            <mxPoint x="1098.5699999999997" y="1007.8799999999999" as="sourcePoint"/>
            <mxPoint x="1257.5" y="1007.8799999999999" as="targetPoint"/>
          </mxGeometry>
        </mxCell>
        <mxCell id="DjlRrPvjS2F6TvQDkWPC-42" value="返回数据" style="rounded=0;orthogonalLoop=1;jettySize=auto;html=1;exitX=0.04;exitY=0.953;exitDx=0;exitDy=0;exitPerimeter=0;" edge="1" parent="1" source="DjlRrPvjS2F6TvQDkWPC-39" target="DjlRrPvjS2F6TvQDkWPC-36">
          <mxGeometry relative="1" as="geometry">
            <mxPoint x="1350" y="1040" as="sourcePoint"/>
            <mxPoint x="1427" y="1025.78" as="targetPoint"/>
          </mxGeometry>
        </mxCell>
        <mxCell id="DjlRrPvjS2F6TvQDkWPC-43" value="返回数据" style="rounded=0;orthogonalLoop=1;jettySize=auto;html=1;entryX=1.122;entryY=0.703;entryDx=0;entryDy=0;entryPerimeter=0;" edge="1" parent="1" source="DjlRrPvjS2F6TvQDkWPC-36" target="DjlRrPvjS2F6TvQDkWPC-33">
          <mxGeometry relative="1" as="geometry">
            <mxPoint x="1145.9" y="1059.5900000000001" as="sourcePoint"/>
            <mxPoint x="986" y="1059.5900000000001" as="targetPoint"/>
          </mxGeometry>
        </mxCell>
        <mxCell id="DjlRrPvjS2F6TvQDkWPC-45" value="返回数据" style="rounded=0;orthogonalLoop=1;jettySize=auto;html=1;entryX=1.081;entryY=0.286;entryDx=0;entryDy=0;entryPerimeter=0;" edge="1" parent="1" source="DjlRrPvjS2F6TvQDkWPC-33" target="DjlRrPvjS2F6TvQDkWPC-44">
          <mxGeometry relative="1" as="geometry">
            <mxPoint x="1257.5" y="1064.202" as="sourcePoint"/>
            <mxPoint x="930.7199999999998" y="1064.202" as="targetPoint"/>
          </mxGeometry>
        </mxCell>
        <mxCell id="DjlRrPvjS2F6TvQDkWPC-46" value="" style="group" vertex="1" connectable="0" parent="1">
          <mxGeometry x="26.5" y="640" width="200" height="90" as="geometry"/>
        </mxCell>
        <mxCell id="DjlRrPvjS2F6TvQDkWPC-3" value="raging-ui获取rancher数据时序图" style="rounded=0;whiteSpace=wrap;html=1;verticalAlign=top;fontStyle=1" vertex="1" parent="DjlRrPvjS2F6TvQDkWPC-46">
          <mxGeometry width="200" height="90" as="geometry"/>
        </mxCell>
        <mxCell id="DjlRrPvjS2F6TvQDkWPC-4" value="" style="rounded=0;whiteSpace=wrap;html=1;fillColor=#fad7ac;strokeColor=#b46504;" vertex="1" parent="DjlRrPvjS2F6TvQDkWPC-46">
          <mxGeometry x="10" y="31.83333333333337" width="40" height="17.5" as="geometry"/>
        </mxCell>
        <mxCell id="DjlRrPvjS2F6TvQDkWPC-5" value="" style="rounded=0;whiteSpace=wrap;html=1;fillColor=#b1ddf0;strokeColor=#10739e;" vertex="1" parent="DjlRrPvjS2F6TvQDkWPC-46">
          <mxGeometry x="10" y="60.83333333333337" width="40" height="17.5" as="geometry"/>
        </mxCell>
        <mxCell id="DjlRrPvjS2F6TvQDkWPC-6" value="uaa-fronted-proxy" style="text;html=1;resizable=0;points=[];autosize=1;align=left;verticalAlign=top;spacingTop=-4;" vertex="1" parent="DjlRrPvjS2F6TvQDkWPC-46">
          <mxGeometry x="61" y="58.16666666666663" width="110" height="20" as="geometry"/>
        </mxCell>
        <mxCell id="DjlRrPvjS2F6TvQDkWPC-7" value="raging-hub" style="text;html=1;resizable=0;points=[];autosize=1;align=left;verticalAlign=top;spacingTop=-4;" vertex="1" parent="DjlRrPvjS2F6TvQDkWPC-46">
          <mxGeometry x="61" y="30.66666666666663" width="70" height="20" as="geometry"/>
        </mxCell>
        <mxCell id="DjlRrPvjS2F6TvQDkWPC-48" value="" style="group" vertex="1" connectable="0" parent="1">
          <mxGeometry x="30" y="1169" width="200" height="90" as="geometry"/>
        </mxCell>
        <mxCell id="DjlRrPvjS2F6TvQDkWPC-49" value="用户通过web直接访问rancher" style="rounded=0;whiteSpace=wrap;html=1;verticalAlign=top;fontStyle=1" vertex="1" parent="DjlRrPvjS2F6TvQDkWPC-48">
          <mxGeometry width="200" height="90" as="geometry"/>
        </mxCell>
        <mxCell id="DjlRrPvjS2F6TvQDkWPC-50" value="" style="rounded=0;whiteSpace=wrap;html=1;fillColor=#fad7ac;strokeColor=#b46504;" vertex="1" parent="DjlRrPvjS2F6TvQDkWPC-48">
          <mxGeometry x="10" y="31.83333333333337" width="40" height="17.5" as="geometry"/>
        </mxCell>
        <mxCell id="DjlRrPvjS2F6TvQDkWPC-51" value="" style="rounded=0;whiteSpace=wrap;html=1;fillColor=#b1ddf0;strokeColor=#10739e;" vertex="1" parent="DjlRrPvjS2F6TvQDkWPC-48">
          <mxGeometry x="10" y="60.83333333333337" width="40" height="17.5" as="geometry"/>
        </mxCell>
        <mxCell id="DjlRrPvjS2F6TvQDkWPC-52" value="uaa-fronted-proxy" style="text;html=1;resizable=0;points=[];autosize=1;align=left;verticalAlign=top;spacingTop=-4;" vertex="1" parent="DjlRrPvjS2F6TvQDkWPC-48">
          <mxGeometry x="61" y="58.16666666666663" width="110" height="20" as="geometry"/>
        </mxCell>
        <mxCell id="DjlRrPvjS2F6TvQDkWPC-53" value="raging-hub" style="text;html=1;resizable=0;points=[];autosize=1;align=left;verticalAlign=top;spacingTop=-4;" vertex="1" parent="DjlRrPvjS2F6TvQDkWPC-48">
          <mxGeometry x="61" y="30.66666666666663" width="70" height="20" as="geometry"/>
        </mxCell>
        <mxCell id="DjlRrPvjS2F6TvQDkWPC-58" value="uaa-fronted-proxy" style="shape=umlLifeline;perimeter=lifelinePerimeter;whiteSpace=wrap;html=1;container=1;collapsible=0;recursiveResize=0;outlineConnect=0;rounded=0;comic=0;align=center;strokeWidth=1;flipH=1;flipV=0;strokeColor=#10739e;labelBorderColor=none;labelBackgroundColor=none;fillColor=#b1ddf0;" vertex="1" parent="1">
          <mxGeometry x="545" y="1230" width="125" height="300" as="geometry"/>
        </mxCell>
        <mxCell id="DjlRrPvjS2F6TvQDkWPC-59" value="" style="html=1;points=[];perimeter=orthogonalPerimeter;rounded=0;comic=0;strokeWidth=1;align=center;strokeColor=#000000;labelBorderColor=none;labelBackgroundColor=none;" vertex="1" parent="DjlRrPvjS2F6TvQDkWPC-58">
          <mxGeometry x="58" y="106" width="10" height="44" as="geometry"/>
        </mxCell>
        <mxCell id="DjlRrPvjS2F6TvQDkWPC-71" value="浏览器" style="shape=umlLifeline;perimeter=lifelinePerimeter;whiteSpace=wrap;html=1;container=1;collapsible=0;recursiveResize=0;outlineConnect=0;rounded=0;comic=0;align=center;strokeWidth=1;flipH=1;flipV=0;labelBorderColor=none;labelBackgroundColor=none;fillColor=none;" vertex="1" parent="1">
          <mxGeometry x="351" y="699.5" width="125" height="420" as="geometry"/>
        </mxCell>
        <mxCell id="DjlRrPvjS2F6TvQDkWPC-72" value="" style="html=1;points=[];perimeter=orthogonalPerimeter;rounded=0;comic=0;strokeWidth=1;align=center;strokeColor=#000000;labelBorderColor=none;labelBackgroundColor=none;" vertex="1" parent="DjlRrPvjS2F6TvQDkWPC-71">
          <mxGeometry x="58" y="80.5" width="10" height="75" as="geometry"/>
        </mxCell>
        <mxCell id="DjlRrPvjS2F6TvQDkWPC-75" value="" style="html=1;points=[];perimeter=orthogonalPerimeter;rounded=0;comic=0;strokeWidth=1;align=center;strokeColor=#000000;labelBorderColor=none;labelBackgroundColor=none;" vertex="1" parent="DjlRrPvjS2F6TvQDkWPC-71">
          <mxGeometry x="58" y="370.5" width="10" height="19" as="geometry"/>
        </mxCell>
        <mxCell id="DjlRrPvjS2F6TvQDkWPC-76" value="返回数据" style="rounded=0;orthogonalLoop=1;jettySize=auto;html=1;exitX=0.036;exitY=0.908;exitDx=0;exitDy=0;exitPerimeter=0;" edge="1" parent="1" source="DjlRrPvjS2F6TvQDkWPC-44" target="DjlRrPvjS2F6TvQDkWPC-75">
          <mxGeometry relative="1" as="geometry">
            <mxPoint x="520" y="1130" as="sourcePoint"/>
            <mxPoint x="598.31" y="1091.154" as="targetPoint"/>
          </mxGeometry>
        </mxCell>
        <mxCell id="DjlRrPvjS2F6TvQDkWPC-77" value="" style="rounded=0;orthogonalLoop=1;jettySize=auto;html=1;exitX=1;exitY=0.3333333333333333;exitDx=0;exitDy=0;exitPerimeter=0;" edge="1" parent="1" source="DjlRrPvjS2F6TvQDkWPC-25" target="DjlRrPvjS2F6TvQDkWPC-72">
          <mxGeometry relative="1" as="geometry">
            <mxPoint x="429" y="798.0250000000001" as="sourcePoint"/>
            <mxPoint x="588" y="798.0250000000001" as="targetPoint"/>
          </mxGeometry>
        </mxCell>
        <mxCell id="DjlRrPvjS2F6TvQDkWPC-81" value="浏览器" style="shape=umlLifeline;perimeter=lifelinePerimeter;whiteSpace=wrap;html=1;container=1;collapsible=0;recursiveResize=0;outlineConnect=0;rounded=0;comic=0;align=center;strokeWidth=1;flipH=1;flipV=0;labelBorderColor=none;labelBackgroundColor=none;" vertex="1" parent="1">
          <mxGeometry x="346.5" y="1230" width="125" height="300" as="geometry"/>
        </mxCell>
        <mxCell id="DjlRrPvjS2F6TvQDkWPC-82" value="" style="html=1;points=[];perimeter=orthogonalPerimeter;rounded=0;comic=0;strokeWidth=1;align=center;strokeColor=#000000;labelBorderColor=none;labelBackgroundColor=none;" vertex="1" parent="DjlRrPvjS2F6TvQDkWPC-81">
          <mxGeometry x="58" y="81" width="10" height="130" as="geometry"/>
        </mxCell>
        <mxCell id="DjlRrPvjS2F6TvQDkWPC-84" value="user" style="shape=umlActor;verticalLabelPosition=bottom;labelBackgroundColor=#ffffff;verticalAlign=top;html=1;outlineConnect=0;opacity=50;align=center;" vertex="1" parent="1">
          <mxGeometry x="166.5" y="1298" width="30" height="60" as="geometry"/>
        </mxCell>
        <mxCell id="DjlRrPvjS2F6TvQDkWPC-85" value="" style="rounded=0;orthogonalLoop=1;jettySize=auto;html=1;exitX=1;exitY=0.3333333333333333;exitDx=0;exitDy=0;exitPerimeter=0;" edge="1" parent="1" source="DjlRrPvjS2F6TvQDkWPC-84" target="DjlRrPvjS2F6TvQDkWPC-82">
          <mxGeometry relative="1" as="geometry">
            <mxPoint x="193.5" y="790" as="sourcePoint"/>
            <mxPoint x="419" y="790" as="targetPoint"/>
          </mxGeometry>
        </mxCell>
        <mxCell id="DjlRrPvjS2F6TvQDkWPC-86" value="携带sessionToken请求数据" style="rounded=0;orthogonalLoop=1;jettySize=auto;html=1;entryX=0.105;entryY=0.028;entryDx=0;entryDy=0;entryPerimeter=0;" edge="1" parent="1" source="DjlRrPvjS2F6TvQDkWPC-82" target="DjlRrPvjS2F6TvQDkWPC-59">
          <mxGeometry relative="1" as="geometry">
            <mxPoint x="429" y="798.0250000000001" as="sourcePoint"/>
            <mxPoint x="588" y="798.0250000000001" as="targetPoint"/>
          </mxGeometry>
        </mxCell>
        <mxCell id="DjlRrPvjS2F6TvQDkWPC-87" value="session验证后，next()" style="rounded=0;orthogonalLoop=1;jettySize=auto;html=1;entryX=-0.164;entryY=0.13;entryDx=0;entryDy=0;entryPerimeter=0;" edge="1" parent="1" source="DjlRrPvjS2F6TvQDkWPC-59" target="DjlRrPvjS2F6TvQDkWPC-91">
          <mxGeometry relative="1" as="geometry">
            <mxPoint x="930.9499999999998" y="992.1099999999999" as="sourcePoint"/>
            <mxPoint x="802.4299999999998" y="1351.2199999999998" as="targetPoint"/>
          </mxGeometry>
        </mxCell>
        <mxCell id="DjlRrPvjS2F6TvQDkWPC-88" value="rancher" style="shape=umlLifeline;perimeter=lifelinePerimeter;whiteSpace=wrap;html=1;container=1;collapsible=0;recursiveResize=0;outlineConnect=0;rounded=0;comic=0;align=center;strokeWidth=1;flipH=1;flipV=0;strokeColor=#10739e;labelBorderColor=none;labelBackgroundColor=none;fillColor=#b1ddf0;" vertex="1" parent="1">
          <mxGeometry x="1108.5" y="1230" width="125" height="300" as="geometry"/>
        </mxCell>
        <mxCell id="DjlRrPvjS2F6TvQDkWPC-89" value="" style="html=1;points=[];perimeter=orthogonalPerimeter;rounded=0;comic=0;strokeWidth=1;align=center;strokeColor=#000000;labelBorderColor=none;labelBackgroundColor=none;" vertex="1" parent="DjlRrPvjS2F6TvQDkWPC-88">
          <mxGeometry x="57" y="148" width="10" height="30" as="geometry"/>
        </mxCell>
        <mxCell id="DjlRrPvjS2F6TvQDkWPC-90" value="user manager" style="shape=umlLifeline;perimeter=lifelinePerimeter;whiteSpace=wrap;html=1;container=1;collapsible=0;recursiveResize=0;outlineConnect=0;rounded=0;comic=0;align=center;strokeWidth=1;flipH=1;flipV=0;strokeColor=#10739e;labelBorderColor=none;labelBackgroundColor=none;fillColor=#b1ddf0;" vertex="1" parent="1">
          <mxGeometry x="770" y="1230" width="125" height="300" as="geometry"/>
        </mxCell>
        <mxCell id="DjlRrPvjS2F6TvQDkWPC-91" value="" style="html=1;points=[];perimeter=orthogonalPerimeter;rounded=0;comic=0;strokeWidth=1;align=center;strokeColor=#000000;labelBorderColor=none;labelBackgroundColor=none;" vertex="1" parent="DjlRrPvjS2F6TvQDkWPC-90">
          <mxGeometry x="57.5" y="116.5" width="10" height="40" as="geometry"/>
        </mxCell>
        <mxCell id="DjlRrPvjS2F6TvQDkWPC-92" value="api-proxy" style="shape=umlLifeline;perimeter=lifelinePerimeter;whiteSpace=wrap;html=1;container=1;collapsible=0;recursiveResize=0;outlineConnect=0;rounded=0;comic=0;align=center;strokeWidth=1;flipH=1;flipV=0;strokeColor=#10739e;labelBorderColor=none;labelBackgroundColor=none;fillColor=#b1ddf0;" vertex="1" parent="1">
          <mxGeometry x="939" y="1230" width="125" height="300" as="geometry"/>
        </mxCell>
        <mxCell id="DjlRrPvjS2F6TvQDkWPC-93" value="" style="html=1;points=[];perimeter=orthogonalPerimeter;rounded=0;comic=0;strokeWidth=1;align=center;strokeColor=#000000;labelBorderColor=none;labelBackgroundColor=none;" vertex="1" parent="DjlRrPvjS2F6TvQDkWPC-92">
          <mxGeometry x="57" y="133" width="10" height="60" as="geometry"/>
        </mxCell>
        <mxCell id="DjlRrPvjS2F6TvQDkWPC-94" value="携带rancherToken" style="rounded=0;orthogonalLoop=1;jettySize=auto;html=1;exitX=0.967;exitY=0.504;exitDx=0;exitDy=0;exitPerimeter=0;" edge="1" parent="1" source="DjlRrPvjS2F6TvQDkWPC-91" target="DjlRrPvjS2F6TvQDkWPC-93">
          <mxGeometry relative="1" as="geometry">
            <mxPoint x="868.5" y="1386" as="sourcePoint"/>
            <mxPoint x="837" y="1358.11" as="targetPoint"/>
          </mxGeometry>
        </mxCell>
        <mxCell id="DjlRrPvjS2F6TvQDkWPC-95" value="api请求" style="rounded=0;orthogonalLoop=1;jettySize=auto;html=1;exitX=1.07;exitY=0.313;exitDx=0;exitDy=0;exitPerimeter=0;" edge="1" parent="1" source="DjlRrPvjS2F6TvQDkWPC-93" target="DjlRrPvjS2F6TvQDkWPC-89">
          <mxGeometry relative="1" as="geometry">
            <mxPoint x="847.0699999999997" y="1373.8799999999999" as="sourcePoint"/>
            <mxPoint x="1006" y="1373.8799999999999" as="targetPoint"/>
          </mxGeometry>
        </mxCell>
        <mxCell id="DjlRrPvjS2F6TvQDkWPC-96" value="返回数据" style="rounded=0;orthogonalLoop=1;jettySize=auto;html=1;exitX=0.04;exitY=0.953;exitDx=0;exitDy=0;exitPerimeter=0;" edge="1" parent="1" source="DjlRrPvjS2F6TvQDkWPC-89" target="DjlRrPvjS2F6TvQDkWPC-93">
          <mxGeometry relative="1" as="geometry">
            <mxPoint x="1098.5" y="1406" as="sourcePoint"/>
            <mxPoint x="1175.5" y="1391.78" as="targetPoint"/>
          </mxGeometry>
        </mxCell>
        <mxCell id="DjlRrPvjS2F6TvQDkWPC-98" value="返回数据" style="rounded=0;orthogonalLoop=1;jettySize=auto;html=1;entryX=0.933;entryY=0.863;entryDx=0;entryDy=0;entryPerimeter=0;" edge="1" parent="1" source="DjlRrPvjS2F6TvQDkWPC-93" target="DjlRrPvjS2F6TvQDkWPC-82">
          <mxGeometry relative="1" as="geometry">
            <mxPoint x="1257.5" y="1064.202" as="sourcePoint"/>
            <mxPoint x="930.7199999999993" y="1064.202" as="targetPoint"/>
          </mxGeometry>
        </mxCell>
        <mxCell id="DjlRrPvjS2F6TvQDkWPC-99" value="/oauth/authorize" style="shape=umlLifeline;perimeter=lifelinePerimeter;whiteSpace=wrap;html=1;container=1;collapsible=0;recursiveResize=0;outlineConnect=0;rounded=0;comic=0;align=center;strokeWidth=1;flipH=1;flipV=0;strokeColor=#b46504;labelBorderColor=none;labelBackgroundColor=none;fillColor=#fad7ac;" vertex="1" parent="1">
          <mxGeometry x="1004.5" y="1660" width="125" height="720" as="geometry"/>
        </mxCell>
        <mxCell id="DjlRrPvjS2F6TvQDkWPC-100" value="" style="html=1;points=[];perimeter=orthogonalPerimeter;rounded=0;comic=0;strokeWidth=1;align=center;strokeColor=#000000;labelBorderColor=none;labelBackgroundColor=none;" vertex="1" parent="DjlRrPvjS2F6TvQDkWPC-99">
          <mxGeometry x="57" y="430" width="10" height="40" as="geometry"/>
        </mxCell>
        <mxCell id="DjlRrPvjS2F6TvQDkWPC-101" value="/oauth/token" style="shape=umlLifeline;perimeter=lifelinePerimeter;whiteSpace=wrap;html=1;container=1;collapsible=0;recursiveResize=0;outlineConnect=0;rounded=0;comic=0;align=center;strokeWidth=1;flipH=1;flipV=0;strokeColor=#b46504;labelBorderColor=none;labelBackgroundColor=none;fillColor=#fad7ac;" vertex="1" parent="1">
          <mxGeometry x="1171.5" y="1660" width="125" height="720" as="geometry"/>
        </mxCell>
        <mxCell id="DjlRrPvjS2F6TvQDkWPC-102" value="" style="html=1;points=[];perimeter=orthogonalPerimeter;rounded=0;comic=0;strokeWidth=1;align=center;strokeColor=#000000;labelBorderColor=none;labelBackgroundColor=none;" vertex="1" parent="DjlRrPvjS2F6TvQDkWPC-101">
          <mxGeometry x="60" y="575" width="10" height="116" as="geometry"/>
        </mxCell>
        <mxCell id="DjlRrPvjS2F6TvQDkWPC-103" value="uaa-fronted-proxy" style="shape=umlLifeline;perimeter=lifelinePerimeter;whiteSpace=wrap;html=1;container=1;collapsible=0;recursiveResize=0;outlineConnect=0;rounded=0;comic=0;align=center;strokeWidth=1;flipH=1;flipV=0;strokeColor=#10739e;labelBorderColor=none;labelBackgroundColor=none;fillColor=#b1ddf0;" vertex="1" parent="1">
          <mxGeometry x="546" y="1660" width="125" height="300" as="geometry"/>
        </mxCell>
        <mxCell id="DjlRrPvjS2F6TvQDkWPC-104" value="" style="html=1;points=[];perimeter=orthogonalPerimeter;rounded=0;comic=0;strokeWidth=1;align=center;strokeColor=#000000;labelBorderColor=none;labelBackgroundColor=none;" vertex="1" parent="DjlRrPvjS2F6TvQDkWPC-103">
          <mxGeometry x="58" y="106" width="10" height="44" as="geometry"/>
        </mxCell>
        <mxCell id="DjlRrPvjS2F6TvQDkWPC-105" value="" style="group" vertex="1" connectable="0" parent="1">
          <mxGeometry x="30" y="1610" width="200" height="90" as="geometry"/>
        </mxCell>
        <mxCell id="DjlRrPvjS2F6TvQDkWPC-106" value="单点登录用户认证时序图" style="rounded=0;whiteSpace=wrap;html=1;verticalAlign=top;fontStyle=1" vertex="1" parent="DjlRrPvjS2F6TvQDkWPC-105">
          <mxGeometry width="200" height="90" as="geometry"/>
        </mxCell>
        <mxCell id="DjlRrPvjS2F6TvQDkWPC-107" value="" style="rounded=0;whiteSpace=wrap;html=1;fillColor=#fad7ac;strokeColor=#b46504;" vertex="1" parent="DjlRrPvjS2F6TvQDkWPC-105">
          <mxGeometry x="10" y="31.83333333333337" width="40" height="17.5" as="geometry"/>
        </mxCell>
        <mxCell id="DjlRrPvjS2F6TvQDkWPC-108" value="" style="rounded=0;whiteSpace=wrap;html=1;fillColor=#b1ddf0;strokeColor=#10739e;" vertex="1" parent="DjlRrPvjS2F6TvQDkWPC-105">
          <mxGeometry x="10" y="60.83333333333337" width="40" height="17.5" as="geometry"/>
        </mxCell>
        <mxCell id="DjlRrPvjS2F6TvQDkWPC-109" value="uaa-fronted-proxy" style="text;html=1;resizable=0;points=[];autosize=1;align=left;verticalAlign=top;spacingTop=-4;" vertex="1" parent="DjlRrPvjS2F6TvQDkWPC-105">
          <mxGeometry x="61" y="58.16666666666663" width="110" height="20" as="geometry"/>
        </mxCell>
        <mxCell id="DjlRrPvjS2F6TvQDkWPC-110" value="raging-hub" style="text;html=1;resizable=0;points=[];autosize=1;align=left;verticalAlign=top;spacingTop=-4;" vertex="1" parent="DjlRrPvjS2F6TvQDkWPC-105">
          <mxGeometry x="61" y="30.66666666666663" width="70" height="20" as="geometry"/>
        </mxCell>
        <mxCell id="DjlRrPvjS2F6TvQDkWPC-111" value="浏览器" style="shape=umlLifeline;perimeter=lifelinePerimeter;whiteSpace=wrap;html=1;container=1;collapsible=0;recursiveResize=0;outlineConnect=0;rounded=0;comic=0;align=center;strokeWidth=1;flipH=1;flipV=0;labelBorderColor=none;labelBackgroundColor=none;" vertex="1" parent="1">
          <mxGeometry x="346.5" y="1660" width="125" height="300" as="geometry"/>
        </mxCell>
        <mxCell id="DjlRrPvjS2F6TvQDkWPC-112" value="" style="html=1;points=[];perimeter=orthogonalPerimeter;rounded=0;comic=0;strokeWidth=1;align=center;strokeColor=#000000;labelBorderColor=none;labelBackgroundColor=none;" vertex="1" parent="DjlRrPvjS2F6TvQDkWPC-111">
          <mxGeometry x="58" y="81" width="10" height="130" as="geometry"/>
        </mxCell>
        <mxCell id="DjlRrPvjS2F6TvQDkWPC-113" value="user" style="shape=umlActor;verticalLabelPosition=bottom;labelBackgroundColor=#ffffff;verticalAlign=top;html=1;outlineConnect=0;opacity=50;align=center;" vertex="1" parent="1">
          <mxGeometry x="168.5" y="1723.5" width="30" height="60" as="geometry"/>
        </mxCell>
        <mxCell id="DjlRrPvjS2F6TvQDkWPC-114" value="" style="rounded=0;orthogonalLoop=1;jettySize=auto;html=1;exitX=1;exitY=0.3333333333333333;exitDx=0;exitDy=0;exitPerimeter=0;" edge="1" parent="1" source="DjlRrPvjS2F6TvQDkWPC-113" target="DjlRrPvjS2F6TvQDkWPC-112">
          <mxGeometry relative="1" as="geometry">
            <mxPoint x="206.5" y="1328" as="sourcePoint"/>
            <mxPoint x="414.5" y="1328" as="targetPoint"/>
          </mxGeometry>
        </mxCell>
      </root>
    </mxGraphModel>
  </diagram>
</mxfile>
